<svg id="b" xmlns="http://www.w3.org/2000/svg" viewBox="0 0 1095.74 167.72">
  <defs>
    <linearGradient id="gradient" x1="0%" y1="0%" x2="100%" y2="0%" gradientUnits="userSpaceOnUse" gradientTransform="rotate(30)">
      <stop offset="0%" style="stop-color:#22c55e;stop-opacity:1">
        <animate attributeName="stop-color" values="#22c55e; #db2777; #a855f7; #22c55e" dur="3s" repeatCount="indefinite"/>
      </stop>
      <stop offset="50%" style="stop-color:#db2777;stop-opacity:1">
        <animate attributeName="stop-color" values="#db2777; #a855f7; #22c55e; #db2777" dur="3s" repeatCount="indefinite"/>
      </stop>
      <stop offset="100%" style="stop-color:#a855f7;stop-opacity:1">
        <animate attributeName="stop-color" values="#a855f7; #22c55e; #db2777; #a855f7" dur="3s" repeatCount="indefinite"/>
      </stop>
    </linearGradient>
  </defs>
  <g id="c">
    <g>
      <path d="M95.74,28.97H61.39V127.32h-27.21V28.97H0V6.89H95.74V28.97Z" fill="url(#gradient)"/>
      <path d="M183.51,41.32l-34.94,92.89c-8.4,22.34-21.05,33.51-37.96,33.51-6.44,0-11.73-.73-15.87-2.18v-21.16c3.53,2.07,7.36,3.11,11.51,3.11,6.83,0,11.59-3.22,14.28-9.66l4.54-10.67L90.12,41.32h29.39l16.04,52.32c1.01,3.25,1.79,7.08,2.35,11.51h.34c.5-3.25,1.43-7.03,2.77-11.34l16.21-52.49h26.29Z" fill="url(#gradient)"/>
      <path d="M220.71,127.32h-26.54V0h26.54V127.32Z" fill="url(#gradient)"/>
      <path d="M320.32,91.88h-56.1c.9,12.49,8.76,18.73,23.6,18.73,9.46,0,17.78-2.24,24.94-6.72v19.15c-7.95,4.26-18.28,6.38-30.99,6.38-13.89,0-24.66-3.85-32.33-11.55-7.67-7.7-11.51-18.43-11.51-32.21s4.14-25.59,12.43-33.93c8.29-8.34,18.48-12.51,30.57-12.51s22.24,3.72,29.1,11.17c6.86,7.45,10.29,17.55,10.29,30.32v11.17Zm-24.61-16.29c0-12.32-4.98-18.48-14.95-18.48-4.26,0-7.94,1.76-11.04,5.29s-5,7.92-5.67,13.19h31.66Z" fill="url(#gradient)"/>
      <path d="M392.21,65.26c-3.19-1.73-6.92-2.6-11.17-2.6-5.77,0-10.27,2.11-13.52,6.34-3.25,4.23-4.87,9.98-4.87,17.26v41.07h-26.54V41.32h26.54v15.96h.34c4.2-11.64,11.76-17.47,22.68-17.47,2.8,0,4.98,.34,6.55,1.01v24.44Z" fill="url(#gradient)"/>
      <path d="M526.33,127.32h-71.72V6.89h27.13V105.32h44.6v22Z" fill="url(#gradient)"/>
      <path d="M611.49,127.32h-25.11v-12.35h-.34c-5.77,9.63-14.31,14.45-25.62,14.45-8.34,0-14.91-2.36-19.69-7.1-4.79-4.73-7.18-11.04-7.18-18.94,0-16.68,9.88-26.31,29.65-28.89l23.35-3.11c0-9.41-5.1-14.11-15.29-14.11s-19.99,3.05-29.23,9.15v-19.99c3.7-1.9,8.75-3.58,15.16-5.04,6.41-1.46,12.25-2.18,17.51-2.18,24.52,0,36.79,12.23,36.79,36.7v51.4Zm-24.94-34.94v-5.79l-15.62,2.02c-8.62,1.12-12.93,5.01-12.93,11.67,0,3.02,1.05,5.5,3.15,7.43,2.1,1.93,4.94,2.9,8.53,2.9,4.98,0,9.04-1.72,12.18-5.17,3.13-3.44,4.7-7.8,4.7-13.06Z" fill="url(#gradient)"/>
      <path d="M684.47,126.31c-3.92,2.07-9.83,3.11-17.72,3.11-18.7,0-28.05-9.71-28.05-29.14V60.89h-13.94v-19.57h13.94V22.76l26.46-7.56v26.12h19.32v19.57h-19.32v34.77c0,8.96,3.55,13.44,10.67,13.44,2.8,0,5.68-.81,8.65-2.44v19.65Z" fill="url(#gradient)"/>
      <path d="M693.8,125.05v-21.5c4.37,2.63,8.72,4.59,13.06,5.88,4.34,1.29,8.44,1.93,12.3,1.93,4.7,0,8.41-.64,11.13-1.93,2.71-1.29,4.07-3.25,4.07-5.88,0-1.68-.62-3.08-1.85-4.2-1.23-1.12-2.81-2.1-4.75-2.94s-4.05-1.6-6.34-2.27c-2.3-.67-4.51-1.43-6.63-2.27-3.42-1.29-6.42-2.67-9.03-4.16-2.6-1.48-4.79-3.2-6.55-5.17-1.76-1.96-3.11-4.23-4.03-6.8-.92-2.57-1.39-5.63-1.39-9.15,0-4.81,1.05-8.96,3.15-12.43,2.1-3.47,4.9-6.31,8.4-8.52,3.5-2.21,7.5-3.83,12.01-4.87,4.51-1.04,9.2-1.55,14.07-1.55,3.81,0,7.67,.29,11.59,.88,3.92,.59,7.78,1.44,11.59,2.56v20.49c-3.36-1.96-6.96-3.43-10.79-4.41-3.84-.98-7.6-1.47-11.3-1.47-1.74,0-3.37,.16-4.91,.46-1.54,.31-2.9,.76-4.07,1.34s-2.1,1.34-2.77,2.27-1.01,1.97-1.01,3.15c0,1.57,.5,2.91,1.51,4.03,1.01,1.12,2.32,2.09,3.95,2.9,1.62,.81,3.43,1.54,5.42,2.18,1.99,.64,3.96,1.3,5.92,1.97,3.53,1.23,6.72,2.58,9.57,4.03,2.86,1.46,5.3,3.16,7.35,5.12,2.04,1.96,3.61,4.26,4.7,6.89,1.09,2.63,1.64,5.77,1.64,9.41,0,5.1-1.11,9.45-3.32,13.06-2.21,3.61-5.15,6.55-8.82,8.82-3.67,2.27-7.89,3.92-12.68,4.96s-9.76,1.55-14.91,1.55c-9.46,0-18.22-1.46-26.29-4.37Z" fill="url(#gradient)"/>
      <path d="M857.65,127.32h-26.46v-48.88c0-12.6-4.59-18.9-13.77-18.9-4.7,0-8.51,1.76-11.42,5.29-2.91,3.53-4.37,8.01-4.37,13.44v49.05h-26.54V0h26.54V54.09h.34c6.49-9.91,15.31-14.87,26.46-14.87,19.48,0,29.23,11.76,29.23,35.27v52.83Z" fill="url(#gradient)"/>
      <path d="M950.2,127.32h-25.11v-12.35h-.34c-5.77,9.63-14.31,14.45-25.62,14.45-8.34,0-14.91-2.36-19.69-7.1-4.79-4.73-7.18-11.04-7.18-18.94,0-16.68,9.88-26.31,29.65-28.89l23.35-3.11c0-9.41-5.1-14.11-15.29-14.11s-19.99,3.05-29.23,9.15v-19.99c3.7-1.9,8.75-3.58,15.16-5.04,6.41-1.46,12.25-2.18,17.51-2.18,24.52,0,36.79,12.23,36.79,36.7v51.4Zm-24.94-34.94v-5.79l-15.62,2.02c-8.62,1.12-12.93,5.01-12.93,11.67,0,3.02,1.05,5.5,3.15,7.43s4.94,2.9,8.52,2.9c4.98,0,9.04-1.72,12.18-5.17,3.13-3.44,4.7-7.8,4.7-13.06Z" fill="url(#gradient)"/>
      <path d="M1095.74,41.32l-24.78,86h-27.88l-12.68-50.39c-.84-3.36-1.32-7.03-1.43-11h-.5c-.39,4.37-.95,7.92-1.68,10.67l-13.61,50.73h-27.55l-24.27-86h27.04l11.84,56.1c.56,2.63,.98,5.82,1.26,9.57h.5c.28-3.92,.78-7.22,1.51-9.91l14.78-55.77h25.28l13.27,56.1c.34,1.4,.73,4.65,1.18,9.74h.59c.28-3.25,.73-6.49,1.34-9.74l11.17-56.1h24.61Z" fill="url(#gradient)"/>
    </g>
  </g>
</svg>
