<?xml version="1.0" encoding="UTF-8"?>
<svg id="Layer_2" data-name="Layer 2" xmlns="http://www.w3.org/2000/svg" viewBox="0 0 200 200">
  <defs>
    <style>
      .cls-1 {
        fill: #fefefe;
      }

      .cls-1, .cls-2, .cls-3 {
        stroke-width: 0px;
      }

      .cls-2 {
        fill: #aa0633;
      }

      .cls-3 {
        fill: #f0b210;
      }
    </style>
  </defs>
  <g id="Layer_1-2" data-name="Layer 1">
    <g>
      <g>
        <circle class="cls-2" cx="100" cy="100" r="100"/>
        <path class="cls-3" d="m100,4c52.93,0,96,43.07,96,96s-43.07,96-96,96S4,152.93,4,100,47.07,4,100,4m0-4C44.77,0,0,44.77,0,100s44.77,100,100,100,100-44.77,100-100S155.23,0,100,0h0Z"/>
      </g>
      <path class="cls-1" d="m98.91,120.96c-8.77,0-17.53,0-26.3,0-.58,0-1.15-.13-1.52.64-2.73,5.63-5.96,11.01-8.38,16.79-.31.73-.57,1.51-.69,2.29-.37,2.43.58,3.68,3.11,3.77,1.44.05,1.76.52,1.71,1.88-.11,2.96-.03,2.97-3.04,2.97-10.04,0-20.08-.02-30.11.03-1.2,0-1.63-.34-1.43-1.49.02-.14.02-.28,0-.42-.25-1.78.14-2.85,2.15-3.57,2.78-.99,4.33-3.55,5.53-6.15,5.92-12.8,11.79-25.63,17.67-38.45,6.04-13.16,12.1-26.32,18.09-39.51,2.1-4.62,4.53-9.1,5.91-14.02.27-.96.38-1.94.26-2.93-.07-.58-.21-1.26-.75-1.44-1.55-.53-1.26-1.75-1.26-2.89q0-2.54,2.5-2.54c11.69,0,23.38.02,35.06-.03,1.2,0,1.6.33,1.43,1.49-.07.51-.05,1.04,0,1.55.1,1.11-.03,1.92-1.34,2.34-1.41.46-1.39,1.82-1.13,2.99.24,1.09.69,2.15,1.17,3.16,12.63,26.49,25.27,52.97,37.92,79.46,2.03,4.24,4.07,8.48,6.09,12.72,1.11,2.34,2.84,3.97,5.31,4.74.73.23.9.57.91,1.28.04,3.69.07,3.69-3.6,3.69-10.51,0-21.02-.02-31.53.03-1.26,0-1.72-.34-1.53-1.57.07-.46.03-.94,0-1.41-.04-.66.15-.94.9-1.09,2.52-.51,3.64-2.27,3.1-4.79-.74-3.44-2.5-6.48-3.96-9.63-1.35-2.9-2.77-5.77-4.08-8.68-.4-.89-.88-1.21-1.89-1.21-8.77.05-17.53.03-26.3.03Zm-1.46-62.22c-1.08,2.54-2.09,4.92-3.1,7.29-4.85,11.47-9.68,22.95-14.56,34.4-.49,1.15-.32,1.37.93,1.37,12.01-.04,24.02-.04,36.03,0,1.28,0,1.39-.22.83-1.36-4.06-8.32-8.04-16.68-12.06-25.02-2.65-5.5-5.32-10.99-8.07-16.67Z"/>
    </g>
  </g>
</svg>