<?xml version="1.0" encoding="UTF-8"?>
<svg id="Layer_2" data-name="Layer 2" xmlns="http://www.w3.org/2000/svg" viewBox="0 0 200 200">
  <defs>
    <style>
      .cls-1 {
        fill: #ffed31;
      }

      .cls-1, .cls-2, .cls-3, .cls-4 {
        stroke-width: 0px;
      }

      .cls-2 {
        fill: #1c252c;
      }

      .cls-3 {
        fill: #fff;
      }

      .cls-4 {
        fill: #0046be;
      }
    </style>
  </defs>
  <g id="Layer_1-2" data-name="Layer 1">
    <g>
      <circle class="cls-4" cx="100" cy="100" r="100"/>
      <g>
        <path id="path2998" class="cls-3" d="m36.85,60.89v36.83h19.28c7.59,0,14.6-2.66,14.6-10.49,0-5.29-3.81-7.7-8-8.97,2.55-1.02,5.45-3.18,5.45-7.69,0-5.77-5.73-9.69-13.44-9.69h-17.89,0Zm11.81,8.58h4.34c1.77,0,3.12,1.38,3.12,2.79,0,1.31-1.4,2.7-3.12,2.7h-4.34v-5.49h0Zm0,13.14h5.73c2,0,3.68,1.52,3.68,3.26,0,1.84-1.57,3.38-4.03,3.38h-5.39v-6.63h0Z"/>
        <path id="path3005" class="cls-3" d="m46.41,101.74v36.83h19.28c7.59,0,14.6-2.66,14.6-10.49,0-5.29-3.81-7.7-8-8.97,2.55-1.02,5.45-3.18,5.45-7.69,0-5.77-5.73-9.69-13.44-9.69h-17.89Zm11.81,8.58h4.34c1.77,0,3.12,1.38,3.12,2.79,0,1.31-1.4,2.7-3.12,2.7h-4.34v-5.49h0Zm0,13.14h5.73c2,0,3.68,1.52,3.68,3.26,0,1.84-1.57,3.38-4.03,3.38h-5.39v-6.63h0Z"/>
        <path id="path3007" class="cls-3" d="m71.67,97.72v-36.83h29.71v8.89h-17.93v4.83h14.56v8.34h-14.56v5.91h17.93v8.86h-29.71Z"/>
        <path id="path3009" class="cls-3" d="m117.47,98.77c8.36,0,15.05-4.77,15.05-12.5,0-12.47-16.23-10.55-16.23-14.44,0-1.5,1.58-2.3,3.2-2.3,2.79,0,4.8,1.84,4.8,1.84l6.98-6.65c-2.79-2.66-7.2-4.89-13.14-4.89-8.92,0-14.76,5.3-14.76,11.68,0,12.63,15.99,10.8,15.99,14.76,0,1.39-1.34,2.79-3.76,2.79-2.75,0-4.93-1.66-6.63-3.07l-7.02,6.7c2.83,2.75,7.37,6.08,15.52,6.08Z"/>
        <path id="path3011" class="cls-3" d="m141.61,97.72v-27.97h-9.73v-8.86h31.27v8.86h-9.73v27.97h-11.81Z"/>
        <path id="path3013" class="cls-3" d="m80.7,101.72h11.78v22.06c0,2.24,2.23,4.31,4.55,4.31,2.19,0,4.41-1.86,4.41-4.42v-21.95h11.74v21.8c0,8.65-7.18,15.55-16.47,15.55s-16.02-7.51-16.02-16.02v-21.32Z"/>
        <path id="path3015" class="cls-3" d="m127.71,138.55v-13.16l-13.84-23.67h11.92l7.83,12.68,7.86-12.68h11.94l-13.9,23.81v13.03h-11.81Z"/>
        <path id="path3017" class="cls-1" d="m153.42,121.87l-6.95,6.95v9.38l6.95,6.95h29.39v-23.28h-29.39Z"/>
        <path id="path3024" class="cls-2" d="m152.28,133.51c0,.86-.7,1.56-1.56,1.56s-1.56-.7-1.56-1.56.7-1.56,1.56-1.56,1.56.7,1.56,1.56Z"/>
      </g>
    </g>
  </g>
</svg>