<?xml version="1.0" encoding="utf-8"?>
<!-- Generator: Adobe Illustrator 27.9.0, SVG Export Plug-In . SVG Version: 6.00 Build 0)  -->
<svg version="1.1" id="Layer_1" xmlns="http://www.w3.org/2000/svg" xmlns:xlink="http://www.w3.org/1999/xlink" x="0px" y="0px"
	 viewBox="0 0 200 200" style="enable-background:new 0 0 200 200;" xml:space="preserve">
<style type="text/css">
	.st0{fill:#0297D7;}
	.st1{fill:#FFFFFF;}
	.st2{fill:#CE0E2D;}
	.st3{fill:#6A747C;}
	.st4{fill:#499BD6;}
	.st5{fill:#2C398D;}
	.st6{fill:#002A73;}
</style>
<g id="a_x2B_">
	<g>
		<g>
			<g>
				<g>
					<g>
						<path class="st1" d="M100.4,16.8c-49.2,0-89.1,39.9-89.1,89c0,24.7,9.9,47.7,27.8,64.7l0.9,0.9l1-0.9c2.6-2.4,5.3-4.6,8.1-6.6
							c13.6,12,31.5,19.4,51.1,19.4s37.5-7.4,51.1-19.4c2.8,2.1,5.5,4.2,8.1,6.6l1,0.9l0.9-0.9c18-17,27.9-40,27.9-64.7
							C189.5,56.7,149.5,16.8,100.4,16.8z"/>
						<g>
							<path class="st2" d="M78.1,55.9c-2.1,0-3.7,1.4-3.7,3.2s1.7,3.2,3.7,3.2s3.7-1.4,3.7-3.2S80.2,55.9,78.1,55.9 M78.1,64.4
								c-3.3,0-5.9-2.3-5.9-5.3s2.6-5.3,5.9-5.3s5.9,2.3,5.9,5.3S81.4,64.4,78.1,64.4"/>
							<path class="st2" d="M99.1,64.4c-1.2,0-2.1-0.9-2.1-2.1v-4.4c0-1-0.9-1.9-2.1-1.9c-1.1,0-2.1,0.8-2.1,1.9v6.5
								c-1.2,0-2.1-0.9-2.1-2.1v-4.5c0-1-0.9-1.9-2.1-1.9c-1.1,0-2.1,0.8-2.1,1.9v4.4c0,1.2-0.9,2.1-2.1,2.1v-6.5c0-2.2,1.9-4,4.2-4
								c1.2,0,2.3,0.5,3.1,1.3c0.7-0.8,1.9-1.3,3.1-1.3c2.3,0,4.2,1.8,4.2,4L99.1,64.4z"/>
							<path class="st2" d="M106,64.4c-0.6,0-1.1,0-1.6-0.2c-1.1-0.3-1.8-1.5-1.5-2.6c0-0.1,0.1-0.3,0.1-0.4l0,0
								c0.6,0.7,1.6,1,2.9,1c2,0,3.5-1.4,3.5-3.1c0-1.8-1.5-3.3-3.5-3.3c-1.9,0-3.7,1-3.7,3.3v6.9c0,1.1-0.9,2.1-2.1,2.1v-9
								c0-3.1,2.4-5.4,5.8-5.4c1.5,0,2.9,0.6,3.9,1.5c1,1,1.7,2.3,1.7,3.8C111.6,62.1,109.2,64.4,106,64.4"/>
							<path class="st2" d="M121.2,51.8h-4.6v12.6h-0.1c-1.1,0-2.1-0.9-2.1-2.1V51.8h-4.6c-1.1,0-2.1-0.9-2.1-2.1h15.5
								C123.3,50.9,122.4,51.8,121.2,51.8"/>
							<path class="st2" d="M134.8,51.9l-3,6.6h5.7l-3.1-6.7L134.8,51.9z M139.4,63.1l-1.1-2.4h-7.6l-1.1,2.5c-0.6,1-2,1.3-3,1.3
								l6.2-13.5c0.4-0.7,0.9-1.2,1.7-1.2c0.7,0,1.4,0.5,1.7,1.2l6.1,13.3C141.2,64.4,139.9,64.1,139.4,63.1"/>
							<path class="st2" d="M69.8,53.7c-1.1-1.2-2.8-2.1-4.7-2.1c-3.3,0-6,2.4-6,5.3c0,3,2.7,5.4,6,5.4c1.6,0,3.1-0.6,4.2-1.6
								c0.7-0.7,2-0.6,2.7,0c-0.6,0.9-1.4,1.7-2.3,2.2c-1.4,0.8-2.9,1.3-4.6,1.3c-4.5,0-8.1-3.4-8.1-7.5s3.6-7.5,8.1-7.5
								c3.2,0,6.1,1.8,7.4,4.4C71.7,54.5,70.6,54.5,69.8,53.7"/>
							<path class="st2" d="M143.5,62.8L143.5,62.8c-0.1,0,0,0.1,0.2,0.4l0,0c-0.1,0.1-0.2,0.1-0.3,0c-0.3-0.3-0.3-0.3-0.3-0.3h-0.3
								v-0.1c0-0.1,0.1-0.2,0.2-0.2h0.1c0.1,0,0.2,0,0.2,0s0.1,0,0.1-0.1c0,0,0-0.1-0.3-0.1h-0.4v0.7c0,0.1-0.1,0.2-0.2,0.2h-0.1
								v-0.9c0-0.1,0.1-0.2,0.2-0.2h0.5c0.5,0,0.6,0.3,0.6,0.4C143.7,62.6,143.6,62.7,143.5,62.8 M143.1,61.8
								c-0.5,0-0.8,0.4-0.8,0.7c0,0.5,0.4,0.7,0.8,0.7c0.5,0,0.9-0.4,0.9-0.7S143.6,61.8,143.1,61.8 M143.1,63.6
								c-0.7,0-1.1-0.5-1.1-1c0-0.6,0.5-1,1.1-1s1.1,0.5,1.1,1C144.3,63.2,143.7,63.6,143.1,63.6"/>
							<path class="st2" d="M124,49.7v12.7c0,1.1,0.9,2.1,2.1,2.1V51.7C126.1,50.6,125.2,49.7,124,49.7"/>
						</g>
					</g>
				</g>
			</g>
			<g>
				<path class="st3" d="M100.4,16.8c-49.2,0-89.1,39.9-89.1,89c0,24.7,9.9,47.7,27.8,64.7l0.9,0.9l1-0.9c2.6-2.4,5.3-4.6,8.1-6.6
					c13.6,12,31.5,19.4,51.1,19.4s37.5-7.4,51.1-19.4c2.8,2.1,5.5,4.2,8.1,6.6l1,0.9l0.9-0.9c18-17,27.9-40,27.9-64.7
					C189.5,56.7,149.5,16.8,100.4,16.8z M151.3,160.2c-12.8-8.7-27.5-14-43-15.3v-10.1h-2.9v16.1c0,1.1,0.4,2.2,1,3.1l4.1,5.3
					c-0.6,0.7-0.8,1.6-0.8,2.6c0,2.4,2,4.4,4.4,4.4s4.4-2,4.4-4.4c0-2.4-2-4.4-4.4-4.4c-0.4,0-0.7,0.1-1.1,0.2l-4.2-5.5
					c-0.3-0.4-0.5-0.8-0.5-1.3v-3c14.7,1.3,28.7,6.3,40.8,14.5c-13.1,11.3-30.1,18.2-48.7,18.2c-18.7,0-35.7-6.9-48.7-18.2
					c11.9-7.9,25.5-12.9,39.8-14.4v2.9c0,0.5-0.2,0.9-0.5,1.3l-4.2,5.5c-0.4-0.1-0.7-0.2-1.1-0.2c-2.4,0-4.4,2-4.4,4.4
					s2,4.4,4.4,4.4s4.4-2,4.4-4.4c0-0.9-0.4-1.9-0.8-2.6l4.1-5.3c0.7-0.8,1-2,1-3.1v-16.1h-2.9V145c-15.1,1.5-29.5,6.7-42,15.2
					c-14.6-13.6-23.6-32.9-23.6-54.4c0-41.2,33.4-74.6,74.6-74.6s74.6,33.4,74.6,74.6C175,127.3,165.8,146.6,151.3,160.2z
					 M160.5,167.5c-2.2-2-4.5-3.8-6.9-5.6c14.8-14.1,24.2-34.1,24.2-56.1c0-42.7-34.7-77.5-77.5-77.5S22.9,63,22.9,105.8
					c0,22,9.2,42,24.1,56.1c-2.3,1.8-4.7,3.5-6.9,5.6c-16.7-16.3-25.9-38.2-25.9-61.7c0-47.5,38.6-86.2,86.2-86.2
					s86.2,38.6,86.2,86.2C186.6,129.2,177.3,151,160.5,167.5z"/>
				<path class="st2" d="M192.2,74H0v46.6c0,4.3,3.5,7.8,7.8,7.8H200V81.8C199.9,77.5,196.5,74,192.2,74z"/>
				<g>
					<path class="st1" d="M111.9,117.6h-6.2l-3.4-8H86.7l-3.4,8h-6l14.6-33.3h5.4L111.9,117.6z M94.5,91.3l-5.7,13.3h11.4L94.5,91.3
						z"/>
					<path class="st1" d="M121.5,89.5h5.4v9.1h9.1v5.2h-9.1v9.1h-5.4v-9.1h-9.1v-5.2h9.1V89.5z"/>
				</g>
				<path class="st3" d="M101.3,167.4v-32.7h-2.9v32.7c-1.7,0.6-2.9,2.2-2.9,4.1c0,2.4,2,4.4,4.4,4.4c2.4,0,4.4-2,4.4-4.4
					C104.2,169.6,102.9,168,101.3,167.4z"/>
			</g>
		</g>
	</g>
	<path class="st3" d="M160.9,165.2L160.9,165.2c-0.1,0,0,0.1,0.2,0.4l0,0c-0.1,0.1-0.2,0.1-0.3,0c-0.3-0.3-0.3-0.3-0.3-0.3h-0.3
		v-0.1c0-0.1,0.1-0.2,0.2-0.2h0.1c0.1,0,0.2,0,0.2,0s0.1,0,0.1-0.1c0,0,0-0.1-0.3-0.1h-0.4v0.7c0,0.1-0.1,0.2-0.2,0.2h-0.1v-0.9
		c0-0.1,0.1-0.2,0.2-0.2h0.5c0.5,0,0.6,0.3,0.6,0.4C161.1,165,161,165.1,160.9,165.2 M160.5,164.4c-0.5,0-0.8,0.4-0.8,0.7
		c0,0.5,0.4,0.7,0.8,0.7s0.9-0.4,0.9-0.7C161.4,164.7,161,164.4,160.5,164.4 M160.5,166.2c-0.7,0-1.1-0.5-1.1-1s0.5-1,1.1-1
		s1.1,0.5,1.1,1C161.6,165.7,161.1,166.2,160.5,166.2"/>
</g>
</svg>
