<?xml version="1.0" encoding="UTF-8"?><svg id="Layer_1" xmlns="http://www.w3.org/2000/svg" viewBox="0 0 200 200"><defs><style>.cls-1{fill:#4bb1a3;}.cls-1,.cls-2,.cls-3,.cls-4,.cls-5,.cls-6,.cls-7,.cls-8,.cls-9,.cls-10,.cls-11,.cls-12,.cls-13,.cls-14,.cls-15{stroke-width:0px;}.cls-2{fill:#46b8d3;}.cls-3{fill:#4cb097;}.cls-4{fill:#47b4b9;}.cls-5{fill:#47ae86;}.cls-6{fill:#6bc6dd;}.cls-7{fill:#94d0b1;}.cls-8{fill:#6cc3c6;}.cls-9{fill:#3aa960;}.cls-10{fill:#34a64b;}.cls-11{fill:#41ab75;}.cls-12{fill:#98d4d2;}.cls-13{fill:#fdfefd;}.cls-14{fill:#7dc5a8;}.cls-15{fill:#80c8be;}</style></defs><path class="cls-6" d="M10.16,148.07c-3.78-.23-7.09-3.55-7.13-7.45-.08-8.28-.08-16.57,0-24.85.04-3.77,3.23-7.1,6.8-7.41,2.38.65,4.81.16,7.21.28.31.02.52-.18.64-.46,0-14.65,0-29.29,0-43.94,0-.51.03-1.02.05-1.54,2.8-.37,5.59-.86,8.43-.69.03,8.74.06,17.48.08,26.22.01,6.23.04,12.46-.03,18.68-.01,1.3.63,1.33,1.58,1.32.94,0,1.65,0,1.59-1.32-.1-2.05-.03-4.11-.03-6.17.02-13.03.04-26.05.06-39.08,1.23.12,2.47.25,3.7.36,4.78.41,9.5,1.16,14.06,2.75-.53,3.24-.53,6.47.03,9.71-3.34,1.53-5.06,4.22-5.75,7.76-.49,2.49-.44,4.91-.06,7.41.7,4.66,4.18,8.09,8.88,8.39,1.25.08,2.51.04,3.76.06-.08.5-.42.68-.86.61-1.71-.29-2.06.6-1.89,2.05.06.51.02,1.02,0,1.54-.15,5.34,1.21,5.13-5.08,6.12-.98.15-2.37.07-2.72,1.36-.25.94-.77.96-1.49.95-2.28-.01-4.56,0-6.83,0-7.63,0-15.25,0-22.88.03-.6,0-1.41-.43-1.77.52-2.19.49-3.58,1.83-4.26,3.94-.83.21-.55.9-.55,1.41-.02,7.73-.02,15.46,0,23.19,0,.51-.27,1.2.56,1.4,1.01,2.9,3.08,3.89,6.09,3.87,11.94-.08,23.89-.01,35.83,0,.1,4.69-.16,9.39.4,14.07-1.49-.83-2.99-1.64-4.47-2.49-4-2.3-8.03-4.56-11.98-6.96-1.31-.8-2.4-1.76-4.13-1.56-1.11.13-1.07.39-.61,1.2,1.28,2.28,3.52,3.34,5.64,4.57,5.52,3.21,11.03,6.41,16.55,9.62.35,2.9,1.48,5.57,2.4,8.3.38,1.12,1.2,2.14.96,3.44-9.28-5.36-18.6-10.63-27.81-16.11-3.48-2.07-5.73-5.31-6.82-9.28-.16-.59-.17-1.25-.61-1.75-2.51-.61-5.02-.52-7.54-.05Z"/><path class="cls-10" d="M164.79,34.97c2.41,1.11,4.67,2.49,6.86,4,1.87,1.29,4.07,2.02,5.72,3.71,3.36,3.45,5.02,7.52,5.01,12.32-.02,17.08.02,34.16-.04,51.24,0,1.58.4,1.99,1.97,1.96,2.78-.04,5.6-.44,8.29.92,2.79,1.4,4.31,3.64,4.36,6.62.12,8.28.1,16.57.02,24.85-.04,4-3.37,7.34-7.37,7.57-1.88.11-3.78.15-5.65,0-1.43-.11-1.93.38-2.29,1.74-.98,3.67-3.05,6.67-6.2,8.86-3.11-.89-6.28-1.4-9.52-1.46,0,0-.09.03-.09.03.23-.93.4-1.86.2-2.82,1.3-.79,2.65-1.52,3.9-2.38,1.44-.99,2.8-2.11,3.04-4.03,1.37,0,2.74-.03,4.11-.01.89.01,1.38-.29,1.42-1.27.05-1.12-.62-1.14-1.43-1.14-3.65.02-7.31.01-10.96.01.03-.21.05-.42.08-.63,7.3-.01,14.61-.02,21.91-.03,3.82,0,5.68-1.84,5.69-5.63,0-7.48,0-14.95,0-22.43,0-3.8-1.84-5.62-5.67-5.62-11.76-.01-23.51-.01-35.27-.03-.68,0-1.36-.07-2.04-.1-.05-.17-.1-.33-.15-.5,9.16,0,18.33-.03,27.49,0,1.15,0,2-.23,1.96-1.46-.04-1.34-1.2-.89-1.96-.95-1.46-.1-2.96.2-4.39-.36,0-17.63-.03-35.26,0-52.9,0-3.41-1.46-5.89-4.32-7.62-2.14-1.29-4.28-2.58-6.43-3.87.49-.5,1.68.88,1.73-.51.11-2.7.04-5.41.04-8.11Z"/><path class="cls-7" d="M164.63,164.92c-2.1,1.98-4.79,3.03-7.23,4.47-8.6,5.06-17.28,9.99-25.93,14.97-7.17,4.13-14.34,8.26-21.52,12.38-.19.11-.43.15-.65.22-.23-1.37.45-2.53.89-3.74,1.11-3.09,2.9-5.86,4.2-8.86.92-.57,1.82-1.18,2.75-1.72,10.05-5.8,20.1-11.6,30.16-17.39,4.63-2.66,9.29-5.28,13.94-7.92,1.53,0,3.07,0,4.6.01,0,0,.09-.03.09-.03-.19,2.58-.68,5.11-1.31,7.61Z"/><path class="cls-15" d="M114.39,184.35c-1.3,3-3.08,5.77-4.2,8.86-.44,1.21-1.12,2.37-.89,3.74-5.21,3.54-10.77,4.05-16.33,1.26-5.29-2.66-10.35-5.77-15.49-8.72-6.48-3.72-12.93-7.47-19.39-11.22-.34-.2-.65-.45-.97-.68,2.8-1.47,5.48-3.12,7.91-5.16.11.03.24.03.33.08,9.81,5.68,19.66,11.29,29.42,17.07,3.52,2.09,6.83,2.19,10.26.06.49-.3.98-.59,1.47-.87,2.62-1.48,5.25-2.95,7.87-4.43Z"/><path class="cls-2" d="M26.15,62.01c-2.84-.17-5.63.32-8.43.69.07-4.1-.49-8.22.5-12.28.96-3.95,3.07-7.28,6.46-9.35,7.73-4.73,15.67-9.12,23.52-13.65.2.25.27.12.29-.11,0,0,0,.03,0,.03,1.09-.08,1.48.39,1.45,1.5-.06,2.44.02,4.89.04,7.33-.28.19-.56.39-.85.56-6.19,3.59-12.4,7.17-18.58,10.78-2.91,1.7-4.34,4.26-4.32,7.65.01,2.28-.05,4.57-.07,6.85Z"/><path class="cls-4" d="M49.98,36.17c-.02-2.44-.1-4.89-.04-7.33.03-1.12-.37-1.58-1.45-1.5,3.46-2.39,7.21-4.27,10.82-6.41,4.75-2.81,9.54-5.54,14.31-8.29.49-.28,1.02-.48,1.54-.72.54.03,1.12.14,1.14-.68,0,0-.01.02-.01.02,1.1-.05,1.02.69,1.08,1.46.2,2.44-.58,4.96.56,7.32-.08,0-.13-.03-.15-.11-.24.03-.35.18-.39.41-1.26.77-2.51,1.56-3.79,2.29-7.87,4.52-15.75,9.03-23.62,13.55Z"/><path class="cls-9" d="M164.79,34.97c0,2.7.07,5.41-.04,8.11-.06,1.39-1.24.01-1.73.51,0,0,0,0,0,0-.02-.21-.05-.38-.28-.13-1.31-.44-2.4-1.28-3.57-1.97-6.04-3.5-12.07-7.02-18.11-10.54,1.63.32,1.88-.49,1.82-1.92-.09-2.21.05-4.44.09-6.65,4.19,2.06,8.1,4.6,12.17,6.87,2.48,1.38,4.93,2.8,7.38,4.22.78.46,1.51.99,2.27,1.49Z"/><path class="cls-11" d="M142.97,22.38c-.04,2.22-.19,4.44-.09,6.65.06,1.43-.19,2.24-1.82,1.92,0,0,.02-.03.02-.03-.1-.42-.43-.42-.76-.41-.2-.1-.4-.2-.6-.29-.03-.2-.07-.38-.3-.14-6.09-3.52-12.17-7.03-18.26-10.55,1.07.06,1.1-.63,1.11-1.43.04-2.52-.24-5.05.33-7.55,5.99,3.38,12.01,6.7,17.84,10.36.07.74.58.67,1.09.6,0,0-.04-.03-.04-.03.09.37.38.41.69.41,0,0-.01-.01-.01-.01.04.51.22.81.79.5h.01Z"/><path class="cls-1" d="M77.93,20.03c-1.14-2.36-.37-4.88-.56-7.32-.06-.77.02-1.52-1.08-1.46,5.87-3.46,11.62-7.14,17.8-10.06.9.54,1.11,1.32,1.14,2.37.06,2.07-.54,4.21.54,6.18-.08,0-.13-.02-.15-.1-.24.02-.36.16-.39.39-1.9,1.14-3.79,2.3-5.72,3.41-3.85,2.21-7.72,4.4-11.58,6.59Z"/><path class="cls-3" d="M95.76,9.75c-1.08-1.98-.48-4.12-.54-6.19-.03-1.05-.24-1.83-1.14-2.37,5.98-2.33,11.42-1.11,16.52,2.47.04.76.52.8,1.1.69,0,0-.03-.02-.03-.02.1.38.39.41.71.38,0,0-.02-.03-.02-.03.05.22.16.34.4.31,0,0,.11-.04.1-.04-.43,2.36-.16,4.75-.16,7.12,0,1.13-.3,1.72-1.46,1.71,0,0,.03-.03.03-.03-.11-.39-.41-.41-.74-.4-.1-.06-.19-.12-.29-.18-.07-.42-.34-.52-.72-.49l.03.03c-.12-.39-.44-.4-.76-.39-.95-.51-1.96-.93-2.84-1.53-3.22-2.2-6.58-2.77-10.19-1.06Z"/><path class="cls-12" d="M65.03,172.43c-2.43,2.04-5.11,3.69-7.91,5.16-1.53-.52-2.79-1.55-4.18-2.33.24-1.3-.58-2.31-.96-3.44-.92-2.74-2.05-5.41-2.4-8.3,5.15,2.97,10.3,5.94,15.45,8.91Z"/><path class="cls-5" d="M111.24,13.79c1.17,0,1.46-.58,1.46-1.71,0-2.37-.26-4.75.16-7.12,3.25,1.86,6.5,3.73,9.75,5.59-.57,2.5-.29,5.03-.33,7.55-.01.81-.04,1.5-1.11,1.43-.1-.06-.2-.12-.3-.18-.07-.42-.35-.51-.71-.48v.03c0-.22-.06-.37-.27-.12-2.88-1.66-5.76-3.33-8.64-4.99Z"/><path class="cls-5" d="M164.63,164.92c.63-2.5,1.11-5.03,1.31-7.61,3.24.06,6.41.57,9.52,1.46-3.51,2.23-7.01,4.47-10.83,6.15Z"/><path class="cls-2" d="M17.68,108.18c-.12.28-.34.47-.64.46-2.4-.12-4.83.37-7.21-.28,2.62-.06,5.24-.12,7.85-.18Z"/><path class="cls-2" d="M10.16,148.07c2.51-.48,5.03-.56,7.54.05-2.51-.02-5.02-.03-7.54-.05Z"/><path class="cls-9" d="M141.54,21.51c-.51.06-1.02.13-1.09-.6.46.03.8.27,1.09.6Z"/><path class="cls-5" d="M111.71,4.35c-.58.11-1.07.06-1.1-.69.43.14.83.32,1.1.69Z"/><path class="cls-1" d="M76.3,11.23c-.02.82-.6.72-1.14.68.38-.23.76-.46,1.14-.68Z"/><path class="cls-9" d="M142.96,22.38c-.56.3-.75,0-.79-.5.26.17.53.34.79.5Z"/><path class="cls-5" d="M112.38,4.71c-.32.03-.61,0-.71-.38.24.13.47.25.71.38Z"/><path class="cls-9" d="M142.19,21.89c-.31,0-.6-.04-.69-.41.23.14.46.27.69.41Z"/><path class="cls-4" d="M48.5,27.31c-.02.23-.08.36-.29.11.08-.07.18-.11.29-.11Z"/><path class="cls-5" d="M112.76,5c-.23.03-.35-.09-.4-.31.19.02.39.04.4.31Z"/><path class="cls-13" d="M150.82,111.23c.68.04,1.36.1,2.04.1,11.76.01,23.51.02,35.27.03,3.82,0,5.66,1.82,5.67,5.62,0,7.48,0,14.95,0,22.43,0,3.79-1.87,5.62-5.69,5.63-7.3.01-14.61.02-21.91.03-.34-.02-.68-.05-1.02-.05-26.06,0-52.13.01-78.19.03-.45,0-.91.06-1.36.09-.22-.03-.45-.1-.67-.1-12.26,0-24.51.02-36.77.03-11.94-.01-23.89-.08-35.83,0-3.01.02-5.08-.97-6.09-3.87,0-8.67,0-17.33,0-26,.69-2.11,2.08-3.45,4.26-3.94,8.21,0,16.42-.01,24.63-.02.68.04,1.36.11,2.05.11,7.66,0,15.31.01,22.97,0,1.25,0,2.51-.09,3.76-.13,6.78.27,13.55.19,20.33.04,1.5.1,2.99.15,4.49-.03.51.04,1.02.11,1.53.11,19.62.01,39.24.02,58.86.02.56,0,1.13-.09,1.69-.14ZM154.85,131.98c0-.23-.02-.45-.03-.68q.17-2.39,2.71-2.39c.51,0,1.03-.05,1.54.01.95.11,1-.45.96-1.16-.04-.66.19-1.42-.95-1.34-1.08.07-2.17,0-3.25.03-.64.02-1-.17-.93-.86.08-.72-.25-1.49.27-2.15,1.53.02,3.06.02,4.58.07.81.03,1.26-.13,1.21-1.1-.05-.81-.04-1.41-1.15-1.37-2.49.09-4.98.08-7.47.11-.44.43-.24.97-.24,1.46-.02,3.53.06,7.06-.05,10.59-.05,1.46.46,1.82,1.75,1.49,2.06.02,4.11,0,6.16.08,1.13.05.95-.64.98-1.33.03-.75.02-1.27-1.03-1.28-1.69,0-3.41.31-5.09-.19h0ZM119.13,129.22l.03-.07c1.25-.03,2.5-.1,3.75-.07.86.02,1.39-.05,1.35-1.16-.03-.98-.19-1.48-1.32-1.4-1.25.09-2.51,0-3.76-.02,0-.93,0-1.86,0-2.8,1.65-.02,3.3-.1,4.94-.03,1.17.05,1.09-.63,1.11-1.41.02-.78-.06-1.28-1.08-1.24-2.27.07-4.55.02-6.82.03-.44,0-.97-.1-.9.64,0,4.12,0,8.23,0,12.35.36,1.41,1.46.54,2.2.66.65.1.51-.61.51-1.03.01-1.48,0-2.97-.02-4.45ZM103.96,132.65c-.04-3.07-.07-6.15-.11-9.22.16-.06.32-.17.48-.17.95.05,1.6-.05,1.51-1.34-.1-1.29-.96-.85-1.59-.88-1.35-.05-2.71-.02-4.06,0-.38,0-.87-.07-.92.48-.04.49-.14,1.25.12,1.44.44.33,1.14.3,1.73.42-.05,3.09-.1,6.18-.15,9.26-.72.09-1.76-.55-1.78,1.01-.02,1.52,1,1.05,1.74,1.08,1.25.05,2.51-.04,3.76.03.96.06,1.13-.38,1.11-1.21-.03-1.59-1.18-.73-1.85-.91ZM139.63,132.65c-.05-3.08-.1-6.15-.15-9.23.27-.07.54-.22.8-.19.92.09,1.3-.18,1.29-1.2-.01-1.07-.6-1.01-1.31-1-1.47.02-2.94.04-4.41,0-.74-.02-.9.28-.98.98-.24,1.92,1.48.81,2.07,1.42,0,2.96,0,5.91.01,8.87-.25.11-.51.31-.75.3-.85-.05-1.34.05-1.34,1.14,0,1.22.74,1.02,1.45,1.02,1.36,0,2.73-.07,4.08.02,1.08.07,1.22-.44,1.16-1.31-.11-1.56-1.26-.59-1.91-.82ZM48.51,132.66c-.18-.64-.71-.42-1.11-.42-1.57,0-3.13.02-4.7.04-.86-2.94-.57-3.37,2.33-3.37.34,0,.68-.02,1.02,0,.96.09,1.58-.02,1.56-1.31-.02-1.26-.69-1.19-1.53-1.17-.91.02-1.82-.02-2.73.01-.64.02-.99-.2-.93-.87.07-.71-.25-1.48.28-2.14.95.02,1.91.11,2.85.03.99-.09,2.08.47,2.96-.41.41-1.68-.28-2.19-1.93-2.07-1.93.14-3.87.07-5.81.02-.91-.03-1.17.31-1.16,1.19.04,3.76.06,7.52,0,11.28-.02,1.12.43,1.32,1.4,1.29,1.82-.06,3.66-.14,5.47.02,1.75.16,2.43-.39,2.04-2.13ZM171.34,127.8c0,1.94.04,3.87-.02,5.81-.03.88.22,1.22,1.14,1.17,1.59-.09,3.2.02,4.78-.12,2.73-.24,4.2-1.66,4.71-4.33.34-1.76.27-3.51-.08-5.26-.43-2.08-1.77-3.23-3.75-3.75-1.79-.47-3.63-.18-5.44-.3-1.02-.07-1.42.2-1.36,1.3.09,1.82.03,3.64.03,5.47ZM66.48,129.39c.22-.14.41-.26.6-.38,1.7-1.01,2.35-2.57,2.01-4.83-.28-1.87-1.52-2.8-3.26-2.98-1.81-.18-3.64-.08-5.46-.18-.97-.05-1.28.28-1.26,1.26.05,3.59.05,7.19,0,10.78-.01,1.11.03,1.76,1.49,1.75,1.48-.01,1.34-.81,1.31-1.74-.02-.8-.03-1.6,0-2.4.02-.41-.2-.97.5-1.08.5-.08.88.07,1.17.51.6.9,1.37,1.72,1.82,2.69.92,1.97,2.39,2.33,4.47,1.78-1.15-1.76-2.26-3.45-3.39-5.18ZM20.74,127.94c.09-.69.12-1.44.29-2.15.58-2.49,3.55-3.51,5.34-1.68,1.3,1.32,1.82.06,2.43-.48.96-.84-.13-1.31-.62-1.66-2.12-1.53-4.49-1.64-6.85-.71-2.18.86-3.15,2.67-3.34,4.97-.1,1.15-.09,2.27.01,3.41.2,2.3,1.19,4.12,3.4,4.92,2.41.88,4.85.86,6.98-.82.46-.36,1.59-.8.56-1.66-.67-.57-1.2-1.71-2.46-.45-1.95,1.96-4.94.92-5.51-1.76-.13-.61-.16-1.24-.24-1.93ZM82.77,129.3c0,1.42.06,2.85-.02,4.27-.06,1.04.41,1.25,1.31,1.2.81-.04,1.57.13,1.52-1.16-.09-2.28-.03-4.56-.03-6.83,0-2.94,0-3.01,2.98-3.08,1.25-.03,1.15-.72,1.21-1.55.07-.95-.36-1.14-1.2-1.13-2.96.04-5.92.05-8.89,0-.94-.02-1.2.34-1.14,1.19.05.74-.13,1.56,1.07,1.46.68-.05,1.37.04,2.05-.02.92-.07,1.18.35,1.15,1.21-.05,1.48-.01,2.96-.01,4.44Z"/><path class="cls-8" d="M63.92,111.24c-1.25.05-2.51.13-3.76.13-7.66.01-15.31,0-22.97,0-.68,0-1.36-.07-2.05-.11,0-.18.01-.35.02-.53,2.28,0,4.56-.01,6.83,0,.72,0,1.23-.02,1.49-.95.35-1.3,1.74-1.21,2.72-1.36,6.29-.99,4.92-.78,5.08-6.12.01-.51.05-1.03,0-1.54-.17-1.45.18-2.34,1.89-2.05.44.07.78-.11.86-.61,2.49-.4,4.75-1.24,6.36-3.31.34-.44.83-.9.11-1.43-.96-.71-1.85-1.67-2.93-2.03-.75-.25-1.26.97-1.91,1.48-3.03,2.4-7.65,1.2-8.88-2.45-1.03-3.06-.98-6.18.14-9.23.65-1.79,2.08-2.69,3.88-2.95,2.27-.33,4.35.07,5.79,2.09.41.57.68.58,1.19.11.63-.58,1.33-1.08,2.04-1.55.82-.54.92-1.17.24-1.81-1.46-1.37-3-2.61-5.08-2.93-2.63-.4-5.22-.29-7.79.4-.57-3.23-.56-6.47-.03-9.71.34,0,.68.01,1.02.02.28.18.54.43.85.54,6.67,2.33,12.72,5.77,18.21,10.19,2.6,2.1,5.18,4.23,7.03,7.09-1.13,4.43-2.82,8.67-4.17,13.03-.63,2.03-.65,1.87,1.48,2.06,2,.18,3.15-.39,3.38-2.47.04-.39.28-.75.36-1.14.19-.95.7-1.28,1.69-1.22,1.71.1,3.43.06,5.14.08.17,1.34,1.42,2.28,1.35,3.7-.22.17-.42.38-.67.5-6.79,3.04-12.72,7.3-17.98,12.52-.45.44-.94.85-.94,1.56Z"/><path class="cls-13" d="M120.87,19.35c.1.06.2.12.3.18,6.09,3.52,12.17,7.03,18.26,10.55.08.09.18.14.3.14.2.1.4.2.6.29.25.14.51.27.76.41,0,0-.02.03-.02.03,6.03,3.51,12.06,7.04,18.11,10.54,1.18.68,2.26,1.53,3.57,1.97.08.08.17.13.28.13,0,0,0,0,0,0,2.14,1.29,4.29,2.57,6.43,3.87,2.86,1.73,4.33,4.21,4.32,7.62-.02,17.63,0,35.26,0,52.9-1.04.31-2.09.31-3.13,0,0-17.65.02-35.31.02-52.96,0-.84.07-1.74-.69-2.37.04-.07.04-.14-.02-.21-.11-.14-.22-.29-.33-.43-.33-1.25-1.48-1.65-2.42-2.22-1.13-.69-2.32-1.31-3.47-1.97-5.32-3.05-10.64-6.1-15.96-9.16-2.69-1.56-5.37-3.13-8.07-4.68-5.66-3.26-11.32-6.5-16.98-9.75,0,0-.03.02-.03.02-.27-.37-.65-.56-1.08-.67-5.33-3.17-10.65-6.37-16.14-9.28-1.97-1.32-3.86-2.89-6.51-2.26-.81.1-1.56.33-2.15.93-.2.12-.4.23-.6.35-.43.1-.8.3-1.08.66,0,0,.02-.02.02-.02-.22.14-.45.27-.67.41,0,0,0,0,0,0-5.83,3.13-11.54,6.47-17.18,9.92,0,0,.03-.02.03-.02-.25.13-.49.26-.74.39-.1.06-.2.12-.3.19-.24.16-.47.32-.71.48l.02-.03c-.29.02-.56.08-.71.37v-.03c-.1,0-.2.03-.28.11-8.59,4.98-17.17,9.96-25.76,14.94-5.87,3.14-11.59,6.54-17.29,9.96-1.46.87-2.16,2.34-2.18,4.04-.03,2.34.02,4.67.04,7.01-.02,13.03-.04,26.05-.06,39.08,0,2.06-.08,4.12.03,6.17.07,1.32-.65,1.32-1.59,1.32-.95,0-1.6-.02-1.58-1.32.06-6.23.04-12.46.03-18.68-.02-8.74-.05-17.48-.08-26.22.03-2.28.09-4.57.07-6.85-.02-3.39,1.41-5.95,4.32-7.65,6.18-3.61,12.38-7.18,18.58-10.78.29-.17.57-.38.85-.56,7.88-4.51,15.75-9.02,23.62-13.55,1.28-.73,2.52-1.53,3.79-2.29.19-.08.39-.14.39-.41.02.08.07.12.15.11,3.86-2.19,7.73-4.38,11.58-6.59,1.92-1.11,3.81-2.27,5.72-3.41.13-.13.26-.26.39-.39.02.07.07.11.15.1,3.61-1.71,6.97-1.14,10.19,1.06.88.6,1.89,1.03,2.84,1.53.25.13.51.26.76.39,0,0-.03-.03-.03-.03.24.16.48.32.72.49.1.06.19.12.29.18.25.13.49.27.74.4,0,0-.03.03-.03.03,2.88,1.66,5.76,3.33,8.64,4.99.08.08.17.12.29.12,0,0-.01-.03-.01-.03.24.16.48.32.71.48Z"/><path class="cls-12" d="M48.18,145.07c12.26-.01,24.51-.03,36.77-.03.22,0,.45.07.67.1,0,.18-.02.37-.03.55-2.58,6.67-6.21,12.69-10.97,18.05-2.07,2.33-4.27,4.51-6.53,6.65-6.51-3.75-13.01-7.5-19.52-11.25-.56-4.68-.3-9.38-.4-14.07Z"/><path class="cls-13" d="M48.58,159.14c6.51,3.75,13.01,7.5,19.52,11.25,2.3,1.36,4.59,2.75,6.9,4.09,6.59,3.83,13.2,7.63,19.78,11.47,2.61,1.52,5.19,3.02,8.27,1.24,1.52-.88,3.03-1.8,4.55-2.7.46-.31.9-.68,1.39-.92,3.86-1.92,7.52-4.19,11.21-6.4.16-.05.34-.08.48-.16,9.61-5.54,19.22-11.07,28.81-16.64.66-.38,1.5-.63,1.8-1.48.28-.03.6,0,.82-.11,4.76-2.59,9.46-5.26,14.07-8.11,2.03-1.49,4.04-3.04,6.81-2.55-.24,1.92-1.6,3.04-3.04,4.03-1.25.86-2.6,1.59-3.9,2.38-.11,0-.19.03-.24.13-.21.12-.42.24-.63.36-1.37.67-2.71,1.39-3.93,2.31-4.65,2.64-9.31,5.26-13.94,7.92-10.06,5.78-20.11,11.58-30.16,17.39-.94.54-1.84,1.15-2.75,1.72-2.63,1.48-5.25,2.95-7.87,4.43-.5.28-.99.57-1.47.87-3.44,2.13-6.74,2.03-10.26-.06-9.75-5.78-19.6-11.4-29.42-17.07-.09-.05-.22-.06-.33-.08-5.15-2.97-10.3-5.94-15.45-8.91-5.52-3.21-11.03-6.41-16.55-9.62-2.12-1.23-4.36-2.29-5.64-4.57-.46-.81-.5-1.07.61-1.2,1.73-.21,2.82.76,4.13,1.56,3.94,2.4,7.97,4.66,11.98,6.96,1.48.85,2.98,1.66,4.47,2.49Z"/><path class="cls-2" d="M29.41,61.67c-.02-2.34-.07-4.67-.04-7.01.02-1.7.73-3.17,2.18-4.04,5.7-3.42,11.42-6.83,17.29-9.96.01,7.07.01,14.14.05,21.21,0,1.06-.15,2.03-.71,2.93-.34,0-.68-.01-1.02-.02-4.55-1.59-9.27-2.34-14.06-2.75-1.23-.11-2.47-.24-3.7-.36Z"/><path class="cls-13" d="M47.2,74.48c2.57-.69,5.16-.8,7.79-.4,2.08.32,3.63,1.56,5.08,2.93.68.64.58,1.27-.24,1.81-.71.47-1.42.97-2.04,1.55-.51.47-.78.46-1.19-.11-1.44-2.02-3.52-2.41-5.79-2.09-1.8.26-3.23,1.16-3.88,2.95-1.12,3.05-1.17,6.18-.14,9.23,1.23,3.65,5.85,4.85,8.88,2.45.65-.52,1.15-1.74,1.91-1.48,1.08.36,1.97,1.32,2.93,2.03.72.53.23.99-.11,1.43-1.61,2.07-3.87,2.92-6.36,3.31-1.25-.02-2.51.02-3.76-.06-4.7-.3-8.18-3.73-8.88-8.39-.38-2.51-.43-4.92.06-7.41.7-3.54,2.42-6.22,5.75-7.76Z"/><path class="cls-2" d="M6.25,115.21c0,8.67,0,17.33,0,26-.83-.21-.56-.89-.56-1.4-.02-7.73-.02-15.46,0-23.19,0-.51-.28-1.2.55-1.41Z"/><path class="cls-2" d="M35.17,110.72c0,.18-.01.35-.02.53-8.21,0-16.42.01-24.63.02.35-.95,1.17-.52,1.77-.52,7.63-.03,15.25-.02,22.88-.03Z"/><path class="cls-9" d="M170.65,107.97c1.04.32,2.09.32,3.13,0,1.43.55,2.92.25,4.39.36.77.05,1.93-.39,1.96.95.03,1.23-.82,1.47-1.96,1.46-9.16-.04-18.33-.01-27.49,0-1.49-1.46-2.97-2.92-4.46-4.38.56-1.88.39-3.81.4-5.72,0-2.25,0-2.19-2.32-2.29-.7-.03-1.79.66-2.1-.69,4.04,0,8.09,0,12.13,0,3.18,0,3.13,0,3.06-3.18-.02-1.02-.38-1.24-1.31-1.21-1.65.06-3.3.02-4.96.01-4.26,0-4.22,0-4.18-4.29.01-1.11.38-1.35,1.38-1.29,1.31.08,2.62.02,3.93.02,3.9,0,4.02-.14,3.32-4.12,0-.05-.04-.1-.07-.16-.28-.76-.95-.47-1.46-.48-1.7-.03-3.39-.03-5.09,0-.59.01-1.27-.23-1.71.43-.58-1.38-.18-2.81-.22-4.22,2.89,0,5.78.02,8.66,0,.57,0,1.31.29,1.56-.6.17-1.44.16-2.88,0-4.31-.3-.85-1.03-.55-1.6-.55-3.02-.03-6.04-.02-9.05-.02,0-10.73.02-21.45-.01-32.18,0-1.16.22-2.13,1.16-2.85,5.32,3.05,10.64,6.11,15.96,9.16,1.15.66,2.34,1.28,3.47,1.97.94.58,2.09.97,2.42,2.22.11.14.22.29.33.43.06.06.07.13.02.21-.01,1.48-.04,2.96-.04,4.45,0,16.36,0,32.72.02,49.08,0,.63-.47,1.57.7,1.8Z"/><path class="cls-14" d="M166.17,150.66c-4.61,2.85-9.31,5.53-14.07,8.11-.23.12-.55.08-.83.11-1.4-.39-2.7.14-4,.5-10.25,2.84-18.82,8.42-26.13,16.05-.47.49-1.04.93-.96,1.72-3.69,2.21-7.35,4.49-11.21,6.4-.5.25-.93.61-1.39.92-.8-.6-.75-1.47-.75-2.33,0-10.49,0-20.98,0-31.47,0-.82.14-1.55.56-2.28,1.11-1.91.66-2.72-1.44-2.72-6.78,0-13.57,0-20.35-.01,0-.18.02-.37.03-.55.45-.03.91-.09,1.36-.09,26.06-.01,52.13-.02,78.19-.03.34,0,.68.03,1.02.05-.03.21-.05.42-.08.63.02,1.65.03,3.3.05,4.95Z"/><path class="cls-14" d="M146.21,106.35c1.49,1.46,2.97,2.92,4.46,4.38.05.17.1.33.15.5-.56.05-1.13.14-1.69.14-19.62,0-39.24,0-58.86-.02-.51,0-1.02-.07-1.53-.11.47-.73,1.21-.52,1.87-.52,3.65-.01,7.3,0,10.96,0,1.87,0,2.19-.25,1.8-2.06-.48-2.22-.19-4.43-.29-6.64-.06-1.53.44-3.3-1.82-3.78-.11-.02-.15-.39-.23-.6,3.93.01,7.86.03,11.79.04,2.92,0,2.87,0,2.9-2.87.01-1.16-.27-1.61-1.51-1.56-2.33.1-4.67-.02-7,.04-1.1.03-1.63-.26-1.37-1.43,4.61.06,9.18.46,13.71,1.33,2.07.4,3.97,1.44,6.11,1.46.43.41,1,.51,1.52.73,2.86,1.22,5.77,2.3,8.52,3.81,3.75,2.06,7.07,4.68,10.51,7.17Z"/><path class="cls-9" d="M166.17,150.66c-.02-1.65-.03-3.3-.05-4.95,3.65,0,7.31,0,10.96-.01.81,0,1.48.01,1.43,1.14-.04.98-.54,1.28-1.42,1.27-1.37-.02-2.74,0-4.11.01-2.77-.48-4.78,1.06-6.81,2.55Z"/><path class="cls-14" d="M161.24,157.32c1.22-.93,2.56-1.65,3.93-2.31.54.45.58.04.63-.36.05-.09.13-.14.24-.13.2.96.03,1.89-.2,2.82-1.53,0-3.07,0-4.6-.01Z"/><path class="cls-1" d="M77.77,19.92c0,.26-.2.33-.39.41.03-.23.15-.38.39-.41Z"/><path class="cls-10" d="M163.03,43.59c-.11,0-.21-.05-.28-.13.23-.25.27-.08.28.13Z"/><path class="cls-9" d="M141.09,30.92c-.25-.14-.51-.27-.76-.41.34-.01.66,0,.76.41Z"/><path class="cls-9" d="M139.73,30.22c-.12,0-.22-.05-.3-.14.23-.24.27-.06.3.14Z"/><path class="cls-3" d="M95.61,9.65c-.13.13-.26.26-.39.39.04-.22.15-.37.39-.39Z"/><path class="cls-5" d="M110.24,13.18c-.24-.16-.48-.32-.72-.49.37-.04.65.07.72.49Z"/><path class="cls-5" d="M111.27,13.76c-.25-.13-.49-.27-.74-.4.32-.01.63.01.74.4Z"/><path class="cls-5" d="M109.56,12.73c-.25-.13-.51-.26-.76-.39.33-.01.64,0,.76.39Z"/><path class="cls-11" d="M120.87,19.35c-.24-.16-.48-.32-.71-.48.37-.03.65.07.71.48Z"/><path class="cls-11" d="M120.17,18.9c-.11,0-.21-.04-.29-.12.22-.25.26-.1.29.12Z"/><path class="cls-15" d="M101.03,97.63c.07.21.11.58.23.6,2.26.48,1.76,2.25,1.82,3.78.09,2.21-.19,4.42.29,6.64.39,1.82.07,2.06-1.8,2.06-3.65,0-7.3,0-10.96,0-.66,0-1.4-.2-1.87.52-1.49.18-2.99.13-4.49.03.6-1.12,1.66-.58,2.44-.5,1.75.16,2.02-.56,1.6-2.01-.83-2.84-1.6-5.69-2.72-8.44-.49-1.2-1.31-2.29-1.37-3.65.44-.3.92-.42,1.45-.37.39,1.58,1.63,1.37,2.81,1.36,2.35-.02,2.35,0,2.26-2.19-.16-.84.3-1.14,1.02-1.43,1.34-.54,2.86-.41,4.14-1.16,1.69-.24,3.39-.48,5.08-.71.03,1.82.05,3.63.08,5.45Z"/><path class="cls-12" d="M84.2,96.68c.06,1.36.88,2.45,1.37,3.65,1.11,2.75,1.89,5.6,2.72,8.44.42,1.44.15,2.17-1.6,2.01-.77-.07-1.84-.61-2.44.5-6.78.15-13.55.23-20.33-.04,0-.71.5-1.12.94-1.56,5.27-5.22,11.2-9.48,17.98-12.52.25-.11.45-.33.67-.5.23,0,.45.01.68.02Z"/><path class="cls-10" d="M171.34,127.8c0-1.82.07-3.65-.03-5.47-.06-1.1.34-1.37,1.36-1.3,1.81.12,3.65-.17,5.44.3,1.98.52,3.32,1.66,3.75,3.75.36,1.75.42,3.5.08,5.26-.51,2.67-1.98,4.08-4.71,4.33-1.58.14-3.19.03-4.78.12-.92.05-1.17-.29-1.14-1.17.06-1.94.02-3.87.02-5.81ZM174.16,127.96c0,1.14,0,2.28,0,3.42,0,.31-.09.65.36.84,1.25.51,4.07-.54,4.41-1.8.46-1.67.5-3.41-.02-5.07-.45-1.44-2.09-2.1-4.02-1.69-1.42.31-.56,1.48-.72,2.25-.13.66-.03,1.36-.03,2.05Z"/><path class="cls-4" d="M66.48,129.39c1.13,1.73,2.24,3.42,3.39,5.18-2.08.55-3.55.19-4.47-1.78-.45-.97-1.22-1.79-1.82-2.69-.29-.44-.67-.58-1.17-.51-.7.11-.48.67-.5,1.08-.03.8-.03,1.6,0,2.4.03.94.16,1.73-1.31,1.74-1.46.01-1.51-.64-1.49-1.75.05-3.59.05-7.19,0-10.78-.01-.98.29-1.31,1.26-1.26,1.82.1,3.65,0,5.46.18,1.74.17,2.97,1.11,3.26,2.98.34,2.26-.31,3.82-2.01,4.83-.19.12-.38.24-.6.38ZM61.95,125.25c-.2,1.26-.06,2.07,1.58,1.94,2.02-.16,2.82-.55,2.77-1.93-.06-1.8-1.41-1.69-2.69-1.81-1.47-.14-1.99.42-1.66,1.8Z"/><path class="cls-2" d="M20.74,127.94c.08.69.11,1.32.24,1.93.57,2.69,3.56,3.72,5.51,1.76,1.26-1.26,1.79-.12,2.46.45,1.02.87-.11,1.31-.56,1.66-2.14,1.68-4.58,1.7-6.98.82-2.2-.8-3.2-2.62-3.4-4.92-.1-1.14-.11-2.27-.01-3.41.19-2.3,1.16-4.11,3.34-4.97,2.35-.93,4.72-.82,6.85.71.49.36,1.58.82.62,1.66-.62.54-1.14,1.8-2.43.48-1.8-1.83-4.76-.82-5.34,1.68-.17.72-.2,1.47-.29,2.15Z"/><path class="cls-2" d="M42.7,123.45c-.53.65-.21,1.42-.28,2.14-.07.67.29.89.93.87.91-.03,1.82,0,2.73-.01.84-.02,1.51-.09,1.53,1.17.02,1.28-.59,1.39-1.56,1.31-.34-.03-.68,0-1.02,0-2.89,0-3.19.43-2.33,3.37,1.89.84,3.88.17,5.81.38.4,1.74-.29,2.29-2.04,2.13-1.81-.16-3.64-.08-5.47-.02-.98.03-1.42-.17-1.4-1.29.07-3.76.05-7.52,0-11.28,0-.88.25-1.21,1.16-1.19,1.94.06,3.88.12,5.81-.02,1.66-.12,2.35.38,1.93,2.07-1.93.21-3.92-.46-5.81.38Z"/><path class="cls-9" d="M155.18,123.45c-.52.66-.2,1.43-.27,2.15-.07.68.29.88.93.86,1.08-.04,2.17.04,3.25-.03,1.14-.08.92.69.95,1.34.04.7-.02,1.26-.96,1.16-.51-.06-1.03-.01-1.54-.01q-2.54,0-2.71,2.39c-.17.09-.47.16-.49.28-.06.36.27.35.52.4,0,0,0,0,0,0,.29.61.82.72,1.43.7.85-.02,1.71-.04,2.56,0,.55.03,1.45-.3,1.41.71-.04.97-.93.61-1.48.63-1.19.05-2.39,0-3.59.02-.53.01-1.2-.21-1.35.64-1.29.33-1.8-.03-1.75-1.49.11-3.53.03-7.06.05-10.59,0-.49-.2-1.03.24-1.46.38.73,1.07.53,1.67.53,1.71.02,3.42,0,5.13.02.49,0,1.12-.1,1.12.68,0,.78-.63.62-1.12.69-1.32.17-2.71-.4-3.97.38Z"/><path class="cls-1" d="M82.77,129.3c0-1.48-.03-2.96.01-4.44.03-.86-.23-1.28-1.15-1.21-.68.05-1.37-.03-2.05.02-1.2.09-1.02-.73-1.07-1.46-.06-.86.2-1.21,1.14-1.19,2.96.06,5.92.04,8.89,0,.85-.01,1.27.18,1.2,1.13-.06.82.04,1.52-1.21,1.55-2.98.07-2.97.14-2.98,3.08,0,2.28-.07,4.56.03,6.83.05,1.29-.71,1.12-1.52,1.16-.9.05-1.37-.15-1.31-1.2.08-1.42.02-2.85.02-4.27Z"/><path class="cls-11" d="M136.92,123.43c-.58-.61-2.3.5-2.07-1.42.09-.7.24-1,.98-.98,1.47.04,2.94.02,4.41,0,.71,0,1.3-.07,1.31,1,0,1.02-.37,1.29-1.29,1.2-.26-.03-.53.12-.8.19-.27.15-.39.39-.4.69,0,2.54,0,5.07,0,7.61,0,.42.09.78.55.93.65.23,1.8-.75,1.91.82.06.87-.08,1.39-1.16,1.31-1.35-.09-2.72-.02-4.08-.02-.71,0-1.45.2-1.45-1.02,0-1.09.49-1.19,1.34-1.14.24.02.5-.19.75-.3.52-.26.42-.76.42-1.2,0-2.16,0-4.32,0-6.48,0-.44.1-.93-.43-1.19Z"/><path class="cls-3" d="M101.12,123.39c-.59-.12-1.29-.1-1.73-.42-.26-.19-.16-.95-.12-1.44.05-.55.54-.48.92-.48,1.36,0,2.71-.04,4.06,0,.63.02,1.49-.41,1.59.88.1,1.29-.55,1.39-1.51,1.34-.15,0-.32.11-.48.17-.28.13-.42.37-.42.67,0,2.6,0,5.19,0,7.79,0,.37.16.65.53.77.67.18,1.83-.68,1.85.91.01.83-.15,1.27-1.11,1.21-1.25-.07-2.51.01-3.76-.03-.74-.03-1.76.44-1.74-1.08.02-1.56,1.05-.92,1.78-1.01.72-.05.73-.56.72-1.09,0-2.37,0-4.73,0-7.1,0-.47,0-.92-.58-1.07Z"/><path class="cls-5" d="M119.17,123.71c0,.93,0,1.86,0,2.8.17.95.94.57,1.49.69.5.1,1.37-.35,1.41.46.05.89-.8.92-1.52.91-.53,0-1.19-.2-1.41.59,0,0-.03.07-.03.07-1.22.66-.63,1.82-.58,2.69.09,1.65-.35,2.47-2.12,2.13,0-4.12,0-8.23,0-12.35,1.64,0,3.28,0,4.91.01.53,0,1.26-.14,1.21.75-.05.75-.72.51-1.17.62-.74.19-1.76-.56-2.2.63Z"/><path class="cls-11" d="M119.17,123.71c.44-1.19,1.46-.45,2.2-.63.46-.12,1.13.13,1.17-.62.05-.89-.67-.74-1.21-.75-1.64-.02-3.28,0-4.91-.01-.08-.74.46-.64.9-.64,2.27,0,4.55.04,6.82-.03,1.02-.03,1.1.46,1.08,1.24-.02.78.06,1.46-1.11,1.41-1.64-.07-3.29.01-4.94.03Z"/><path class="cls-11" d="M119.16,129.15c.22-.79.87-.59,1.41-.59.72,0,1.56-.02,1.52-.91-.04-.81-.91-.36-1.41-.46-.56-.11-1.33.27-1.49-.69,1.25.01,2.51.11,3.76.02,1.13-.08,1.29.42,1.32,1.4.04,1.1-.49,1.18-1.35,1.16-1.25-.03-2.5.04-3.75.07Z"/><path class="cls-10" d="M153.82,134.69c.15-.85.82-.63,1.35-.64,1.2-.02,2.39.03,3.59-.02.55-.02,1.44.34,1.48-.63.04-1.01-.86-.67-1.41-.71-.85-.05-1.71-.03-2.56,0-.61.02-1.14-.09-1.43-.7,1.68.5,3.39.19,5.09.19,1.05,0,1.06.52,1.03,1.28-.03.68.14,1.38-.98,1.33-2.05-.09-4.11-.06-6.16-.08Z"/><path class="cls-5" d="M101.12,123.39c.58.15.58.6.58,1.07,0,2.37,0,4.73,0,7.1,0,.53,0,1.04-.72,1.09.05-3.09.1-6.18.15-9.27Z"/><path class="cls-10" d="M155.18,123.45c1.26-.79,2.65-.22,3.97-.38.49-.06,1.12.09,1.12-.69,0-.77-.63-.67-1.12-.68-1.71-.01-3.42,0-5.13-.02-.6,0-1.29.2-1.67-.53,2.49-.03,4.98-.02,7.46-.11,1.11-.04,1.1.56,1.15,1.37.05.96-.4,1.13-1.21,1.1-1.53-.06-3.06-.05-4.58-.07Z"/><path class="cls-11" d="M116.44,134.04c1.77.34,2.21-.48,2.12-2.13-.05-.87-.64-2.03.58-2.69,0,1.48.03,2.97.02,4.45,0,.42.14,1.13-.51,1.03-.74-.11-1.84.75-2.2-.66Z"/><path class="cls-10" d="M139.63,132.65c-.46-.15-.55-.51-.55-.93,0-2.54,0-5.07,0-7.61,0-.3.12-.54.4-.69.05,3.08.1,6.15.15,9.23Z"/><path class="cls-11" d="M103.96,132.65c-.37-.12-.53-.39-.53-.77,0-2.6,0-5.19,0-7.79,0-.3.14-.54.42-.67.04,3.07.07,6.15.11,9.22Z"/><path class="cls-10" d="M136.92,123.43c.53.25.43.75.43,1.19,0,2.16,0,4.32,0,6.48,0,.44.1.93-.42,1.2,0-2.96,0-5.91-.01-8.87Z"/><path class="cls-4" d="M48.51,132.66c-1.93-.21-3.92.46-5.81-.38,1.57-.02,3.13-.05,4.7-.04.4,0,.93-.22,1.11.42Z"/><path class="cls-4" d="M42.7,123.45c1.89-.84,3.88-.17,5.81-.38-.88.87-1.97.32-2.96.41-.94.09-1.9-.01-2.85-.03Z"/><path class="cls-10" d="M154.85,131.98c-.25-.05-.58-.04-.52-.4.02-.12.32-.19.49-.28,0,.23.02.45.03.68Z"/><path class="cls-4" d="M48.19,64.79c.56-.9.72-1.87.71-2.93-.04-7.07-.04-14.14-.05-21.21,8.59-4.98,17.17-9.96,25.76-14.94.21.25.27.12.28-.11,0,0,0,.03,0,.03.32.04.6,0,.71-.37,0,0-.02.03-.02.03.36.03.64-.07.71-.48.1-.06.2-.12.3-.19.32.01.62-.02.74-.39,0,0-.03.02-.03.02,1.08-.02,1.09.69,1.09,1.49,0,2.44.03,4.88.05,7.32-1.42.73-2.04,1.87-1.84,3.48.2,1.6,1.44,2.06,2.67,2.53.53.2,1.09.32,1.63.48.8.23,1.6.75,1.43,1.54-.18.85-1.06,1.22-2.03,1.06-.64-.1-1.23-.29-1.64-.8-.41-.51-.71-.51-1.24-.11-1.29.96-1.22,1.3.61,2.4,0,1.24-.04,2.48.03,3.72.05.95-.37,1.34-1.25,1.38-.63,0-1.26.05-1.88,0-.71-.05-1.03.29-1.23.91-.92,2.88-1.89,5.73-2.75,8.63-.12.42-1.06,1.18.09,1.47.84.22,1.72.18,1.95-1.03.08-.41.13-1.07.65-1.1,1.19-.09,2.45-.24,3.57.06.81.22.75,1.4.95,2.21-.67.43-.46,1.12-.46,1.72-.02,2.91,0,5.82-.01,8.73,0,1.3.2,2.63-.33,3.89-.24.57-.51,1.12-.71,1.7-.77,2.23-1.31,4.54-2.35,6.68-1.85-2.85-4.43-4.99-7.03-7.09-5.49-4.42-11.54-7.86-18.21-10.19-.31-.11-.57-.36-.85-.54Z"/><path class="cls-13" d="M74.29,82.61c1.04-2.14,1.58-4.45,2.35-6.68.2-.58.47-1.13.71-1.7,1.6.02,3.19.11,4.79.04.98-.04,1.42.31,1.7,1.22,1.01,3.26,1.99,6.54,3.17,9.75,1.25,3.41,1.93,7.02,3.71,10.23.1,2.18.1,2.17-2.26,2.19-1.18.01-2.42.22-2.81-1.36-.54-3.41-.61-3.48-3.48-3.35-1.71-.02-3.43.02-5.14-.08-.99-.06-1.5.28-1.69,1.22-.08.39-.32.75-.36,1.14-.24,2.07-1.38,2.65-3.38,2.47-2.13-.19-2.11-.03-1.48-2.06,1.35-4.36,3.04-8.6,4.17-13.03ZM80.2,79.09c-1.06,3.29-1.97,6.12-2.89,8.96-.19.58.09.68.58.67,1.53,0,3.07,0,4.6.03.64.01.81-.27.62-.83-.92-2.79-1.84-5.57-2.91-8.83Z"/><path class="cls-1" d="M82.17,92.96c2.87-.13,2.95-.06,3.48,3.35-.53-.05-1.01.07-1.45.37-.23,0-.45-.01-.68-.02.07-1.42-1.18-2.37-1.35-3.7Z"/><path class="cls-11" d="M146.21,106.35c-3.44-2.49-6.76-5.11-10.51-7.17-2.75-1.51-5.66-2.59-8.52-3.81-.52-.22-1.09-.32-1.52-.73,1.35-.7,1.04-1.96,1.06-3.12,1.82,0,3.63,0,5.45-.02.58,0,1.33.21,1.39-.78v-3.91c-.04-1-.8-.78-1.38-.78-2.27-.02-4.55,0-6.82,0,0-8.56,0-17.12,0-25.68.93.03,1.77-.33,2.61-.61.59-.2,1.49-.46,1.13-1.3-.27-.62-.87-1.02-1.8-.48-.97.57-2.14.55-2.88-.55-.43-.63-.61-1.3.63-1.25,1.19.05,2.39,0,3.59.01.49,0,.81-.05.92-.69.42-2.43-.65-3.95-3.1-4.26-1.12-.14-2.15.11-3.09.73-.85-1.56-.84-3.26-.75-4.96.06-1.18.05-2.31-1.04-3.08,1.58.26,2.28-.29,2.04-1.98-.14-1.05-.02-2.14-.03-3.21-.03-2.81-.65-3.4-3.4-3.25.1-.13.21-.39.3-.38,1.88.12,1.77-1.1,1.8-2.43.06-2.82-.41-5.67.42-8.45,5.66,3.25,11.32,6.5,16.98,9.75,2.69,1.55,5.38,3.12,8.07,4.68-.95.72-1.17,1.69-1.16,2.85.03,10.73.01,21.45.01,32.18-1.05,0-2.1,0-3.15.01-.53,0-1.16-.14-1.31.65v.03c-.85.13-.68.79-.68,1.34,0,6.9,0,13.8,0,20.7,0,.55-.14,1.21.73,1.26v-.02c.3,1.35,1.39.66,2.09.69,2.31.1,2.32.04,2.32,2.29,0,1.91.16,3.84-.4,5.72Z"/><path class="cls-5" d="M121.59,43.92c1.09.78,1.1,1.9,1.04,3.08-.09,1.7-.1,3.4.75,4.96-2.27,2.38-1.83,6.11.94,7.97.15.33.44.37.75.36.1,0,.2.01.29.05,0,8.56,0,17.12,0,25.68-.79.25-1.89-.58-2.4.67,0,1.39,0,2.79,0,4.18.1.6.54.64,1.03.64.91,0,1.83,0,2.74,0-.01,1.15.3,2.42-1.06,3.12-2.15-.02-4.05-1.06-6.12-1.46-4.54-.88-9.11-1.27-13.71-1.33-.02-5.32-.02-10.64-.06-15.96,0-.61.34-1.42-.64-1.68,0-4.07-.03-8.15.02-12.22,0-.84-.18-1.54-.72-2.16.66-.06,1.35.15,1.97-.22.59-.29.44-.84.44-1.32,0-1.45-.02-2.89-.03-4.34.61-.53,1.28-1.09,2.12-.71.92.41.66,1.35.68,2.12.03,1.14.05,2.28,0,3.41-.04.84.3,1.08,1.1,1.06.75-.01.99-.3.97-1.02-.04-1.59.04-3.19-.03-4.78-.1-2.54-1.79-3.48-4.11-2.38-.34.16-.75.9-1.11.29-.55-.91-1.34-.3-1.98-.53.73-2.68,1.93-5.44-1.31-7.41.72.19,1.48.34,2.18.02.86-.39,1.57-.85,2.6-.18.56.36,1.42.18,1.38-1.01-.08-2.04-.05-4.09,0-6.14.01-.78-.19-1.12-1.04-1.11-.86,0-1.06.37-1.03,1.13.04,1.25.01,2.5.01,3.75,0,1.17-.92,1.49-1.77,1.78-.67.23-1.25.08-1.34-.8h.17s.17,0,.17,0c1.2.31.66-.67.66-1.03.04-3.99-.04-7.99.04-11.98.09-4.72-.38-9.45.32-14.16,5.49,2.91,10.81,6.11,16.14,9.28.01.78.52.78,1.08.67,0,0,.03-.02.03-.02-.83,2.78-.36,5.63-.42,8.45-.03,1.32.08,2.55-1.8,2.43-.09,0-.2.25-.3.38-.33.17-.65.34-.98.51-.32.02-.64.04-.96.06-1.2-.85-2.44-.9-3.67-.12-.49.31-.64.29-1.16-.14-.89-.73-1.79-.11-1.8,1.1-.02,2,.01,4-.01,6,0,.69.16,1.05.95,1.04.77,0,1.17-.19,1.12-1.06-.06-1.03.06-2.06-.03-3.08-.12-1.37.43-2.17,1.77-2.44.2.33.52.33.85.3.51,1.42.29,2.91.2,4.34-.11,1.72.53,2.23,2.1,1.89.79-.18.6-.83.61-1.35.02-1.51,0-3.01,0-4.52.26-.36.59-.6,1.05-.63.18.3.44.32.74.21l-.02.07c-.02,1.52-.06,3.05-.04,4.57,0,.57-.28,1.29.52,1.62h.1s.05.09.05.09ZM115.72,55.63c0-2.38.81-2.99,3.05-2.15.91.34,1.38-.23,1.67-.71.33-.56-.4-.83-.81-1.06-1.69-.96-4.02-.57-5.15.83-1.33,1.65-1.35,4.73-.04,6.23,1.15,1.32,3.84,1.73,5.35.75.35-.23,1.16-.46.65-1.08-.32-.39-.7-.95-1.55-.61-2.28.92-3.17.25-3.17-2.18Z"/><path class="cls-1" d="M90.71,95.48c-1.78-3.21-2.46-6.83-3.71-10.23-1.17-3.21-2.16-6.48-3.17-9.75-.28-.91-.72-1.26-1.7-1.22-1.59.07-3.19-.02-4.79-.04.53-1.26.32-2.59.33-3.89.02-2.91,0-5.82.01-8.73,0-.6-.21-1.28.46-1.72.45-.03.9-.09,1.35-.08.73.02,1.05-.14.75-.97-1.18-3.35-2.32-6.72-3.47-10.09.88-.04,1.31-.43,1.25-1.38-.07-1.24-.02-2.48-.03-3.72,1.42.53,2.86.68,4.35.29,1.58-.41,2.45-1.39,2.51-3.01.06-1.61-.64-2.73-2.23-3.2-.98-.29-1.96-.57-2.94-.88-.39-.13-.73-.39-.68-.86.05-.47.43-.64.83-.72.91-.18,1.87-.17,2.64.33.98.64,1.4-.19,1.8-.65.55-.63-.22-1.02-.61-1.31-1.62-1.19-3.45-.85-5.25-.56-.02-2.44-.05-4.88-.05-7.32,0-.8,0-1.51-1.09-1.49,5.64-3.46,11.35-6.79,17.18-9.92-.67.92-.72,1.97-.67,3.06.35,6.98-.65,14,.65,20.97.63,3.39-.68,6.73-.85,10.13-.05.95.82,2.01-.14,2.9-.25,0-.49.01-.74.02-1.7-.3-2.15.49-1.99,2.08.14,1.41.13,2.85,0,4.27-.16,1.7.44,2.32,2.09,1.87.21,0,.42,0,.63-.01.59.56.33,1.29.33,1.95.02,9.36.05,18.72-.02,28.08-.01,1.67.04,3.03,2.09,3.24-1.28.75-2.8.62-4.14,1.16-.72.29-1.18.59-1.02,1.43ZM84.16,48.65c-.37-.84-1.13-.72-1.76-.59-.81.17-.47.93-.48,1.44-.03,2.8-.02,5.59-.01,8.39,0,2.18.02,2.2,2.21,1.72.53-.26.42-.75.43-1.19,0-2.84,0-5.68,0-8.53,0-.45.08-.93-.38-1.23ZM88.48,59.6c.48-.15.53-.54.53-.95,0-3.24,0-6.49,0-9.73,0-.42-.08-.8-.56-.92-.7.18-1.48-.24-2.13.3-.12.18-.34.37-.34.55-.02,3.41-.02,6.82,0,10.23,0,.18.24.35.36.53.71.3,1.43.34,2.14,0ZM93.36,36.81c-1.82-1.88-4.82-1.9-6.17-.05-1.01,1.4-1.09,4.42-.15,5.9.82,1.29,2.58,1.75,4.78,1.25.16-.04.34-.07.5-.06.65.03,1.3-.38,1.29-.85-.02-.64-.87-.82-1.4-1.1-.19-.1-.59.22-.9.34-.88.34-1.77.31-2.3-.52-.76-1.19-.71-2.52-.09-3.74.43-.84,1.37-.98,2.1-.62,1.02.5,1.67.14,2.33-.54ZM92.87,49.17c-.03-.77-.53-.91-1.17-.89-.83.02-1.04.5-1,1.24.04.69.45.82,1.02.8.75-.03,1.15-.38,1.14-1.15Z"/><path class="cls-3" d="M93.46,51.4c.97-.9.1-1.95.14-2.9.16-3.4,1.48-6.74.85-10.13-1.3-6.97-.3-13.99-.65-20.97-.05-1.09,0-2.14.67-3.06,0,0,0,0,0,0,.31,0,.58-.05.67-.41,0,0-.02.02-.02.02.54.08,1.05.1,1.08-.66.2-.12.4-.23.6-.35.84-.02,1.71.02,2.15-.93,2.65-.63,4.54.94,6.51,2.26-.7,4.71-.23,9.44-.32,14.16-.08,3.99,0,7.99-.04,11.98,0,.36.54,1.34-.66,1.03,0-1.17.06-2.35-.02-3.51-.06-.77.44-1.69-.48-2.29-.69,0-1.38,0-2.07,0-.38.12-.51.42-.51.79,0,1.7,0,3.4,0,5.11,0,.42.09.79.57.92l.13.36c-.32.31-.02.27.16.3.3.29.6.58.91.88,3.24,1.97,2.04,4.73,1.31,7.41,0,0-.13,0-.13,0-.75.27-.54.92-.54,1.45-.02,1.65-.03,3.3,0,4.96.01.65-.25,1.39.45,1.89.08.02.15.05.21.11.54.62.73,1.31.72,2.16-.04,4.07-.02,8.15-.02,12.22-.8.03-1.6.18-2.38.08-1.48-.18-1.79.43-1.77,1.81.06,5.36,0,10.73-.02,16.09-1.69.24-3.39.48-5.08.71-2.05-.21-2.11-1.57-2.09-3.24.07-9.36.04-18.72.02-28.08,0-.65.26-1.38-.33-1.95,0-2.74,0-5.48,0-8.22ZM97.56,38.36c.47-.56,1.11-.79,1.81-.81.4-.01.83.12.93-.46.07-.44.33-1.07.13-1.29-.46-.51-1.25-.39-1.75-.07-.75.48-1.14.64-1.83-.21-.62-.76-1.61-.18-1.64.95-.05,1.77.11,3.55-.05,5.31-.15,1.72.36,2.47,2.13,2.08,1.25-1.78.67-3.64.28-5.5ZM102.01,56.37c0-.46,0-.91,0-1.37,0-3.19-2.94-5-5.92-3.65-.58.26-1.33.56-1.11,1.27.19.65.91,1.02,1.67.85.84-.18,1.68-.2,2.52-.06.32.05.74.06.74.53,0,.43-.36.51-.72.56-.84.12-1.71.16-2.52.4-1.65.49-2.4,1.98-1.85,3.48.48,1.31,2.13,2.06,3.56,1.45.78-.33,1.35-.53,2.22-.09.76.38,1.56.05,1.42-1.16-.08-.73-.02-1.48-.02-2.22Z"/><path class="cls-10" d="M170.65,107.97c-1.16-.24-.69-1.17-.7-1.8-.03-16.36-.02-32.72-.02-49.08,0-1.48.03-2.96.04-4.45.76.64.69,1.53.69,2.37,0,17.65,0,35.31-.02,52.96Z"/><path class="cls-1" d="M98.95,12.02c-.44.95-1.31.91-2.15.93.59-.6,1.34-.84,2.15-.93Z"/><path class="cls-1" d="M96.2,13.3c-.03.76-.54.74-1.08.66.27-.36.65-.55,1.08-.66Z"/><path class="cls-11" d="M122.69,24.23c-.56.1-1.07.11-1.08-.67.43.12.81.3,1.08.67Z"/><path class="cls-1" d="M76.29,24.81c-.07.41-.34.51-.71.48.24-.16.47-.32.71-.48Z"/><path class="cls-1" d="M95.14,13.94c-.09.36-.36.41-.67.41.22-.14.45-.27.67-.41Z"/><path class="cls-1" d="M75.6,25.26c-.11.37-.39.41-.71.37.15-.29.42-.34.71-.37Z"/><path class="cls-1" d="M77.33,24.24c-.12.37-.42.4-.74.39.25-.13.49-.26.74-.39Z"/><path class="cls-10" d="M169.95,52.43c-.11-.14-.22-.29-.33-.43.11.14.22.29.33.43Z"/><path class="cls-1" d="M74.9,25.6c-.02.23-.07.36-.28.11.08-.08.17-.11.28-.11Z"/><path class="cls-15" d="M85.59,145.69c6.78,0,13.57,0,20.35.01,2.1,0,2.55.81,1.44,2.72-.42.73-.56,1.46-.56,2.28.01,10.49,0,20.98,0,31.47,0,.86-.05,1.73.75,2.33-1.51.9-3.02,1.81-4.55,2.7-3.08,1.78-5.66.28-8.27-1.24-6.58-3.84-13.19-7.64-19.78-11.47-2.31-1.34-4.6-2.73-6.9-4.09,2.26-2.14,4.46-4.31,6.53-6.65,4.76-5.36,8.39-11.38,10.97-18.05Z"/><path class="cls-7" d="M120.2,177.16c-.08-.79.49-1.23.96-1.72,7.31-7.63,15.88-13.21,26.13-16.05,1.29-.36,2.59-.9,4-.5-.3.85-1.14,1.1-1.8,1.48-9.59,5.57-19.2,11.1-28.81,16.64-.14.08-.32.11-.48.16Z"/><path class="cls-5" d="M165.8,154.65c-.05.4-.09.81-.63.36.21-.12.42-.24.63-.36Z"/><path class="cls-13" d="M157.27,74.25c.16,1.44.17,2.88,0,4.31-2.99,0-5.98-.03-8.97,0-.45,0-1.23-.42-1.25.59.04,1.41-.36,2.84.22,4.22,2.75.24,5.5.14,8.25.05.02.05.06.1.07.16.7,3.98.59,4.12-3.32,4.12-1.31,0-2.62.06-3.93-.02-1-.06-1.37.19-1.38,1.29-.04,4.29-.09,4.29,4.18,4.29,1.65,0,3.31.05,4.96-.01.92-.04,1.28.19,1.31,1.21.07,3.18.12,3.18-3.06,3.18-4.04,0-8.09,0-12.13,0,0,0,0,.02,0,.02-.02-7.77-.04-15.53-.06-23.3,0,0,0-.03,0-.03,5.04-.03,10.08-.06,15.12-.08Z"/><path class="cls-10" d="M157.27,74.25c-5.04.03-10.08.06-15.12.08.15-.79.77-.64,1.31-.65,1.05-.01,2.1,0,3.15-.01,3.02,0,6.04,0,9.05.02.57,0,1.3-.3,1.6.55Z"/><path class="cls-10" d="M147.04,79.16c.02-1.01.8-.59,1.25-.59,2.99-.03,5.98-.01,8.97,0-.25.89-.99.59-1.56.6-2.89.02-5.78,0-8.66,0Z"/><path class="cls-10" d="M155.52,83.44c-2.75.09-5.5.18-8.25-.05.44-.66,1.12-.42,1.71-.43,1.7-.03,3.39-.03,5.09,0,.51,0,1.18-.28,1.46.48Z"/><path class="cls-13" d="M100.95,92.18c.02-5.36.08-10.73.02-16.09-.02-1.39.29-2,1.77-1.81.78.1,1.59-.05,2.38-.08.99.26.64,1.08.64,1.68.04,5.32.05,10.64.06,15.96-.26,1.17.27,1.46,1.37,1.43,2.33-.07,4.67.05,7-.04,1.24-.05,1.53.4,1.51,1.56-.04,2.87.02,2.88-2.9,2.87-3.93,0-7.86-.02-11.79-.04-.03-1.82-.05-3.63-.08-5.45Z"/><path class="cls-13" d="M174.16,127.96c0-.68-.11-1.39.03-2.05.16-.77-.7-1.94.72-2.25,1.93-.42,3.57.25,4.02,1.69.52,1.66.48,3.4.02,5.07-.35,1.26-3.16,2.31-4.41,1.8-.45-.18-.36-.52-.36-.84-.01-1.14,0-2.28,0-3.42Z"/><path class="cls-13" d="M61.95,125.25c-.33-1.38.18-1.94,1.66-1.8,1.28.12,2.62,0,2.69,1.81.05,1.38-.75,1.78-2.77,1.93-1.64.13-1.78-.68-1.58-1.94Z"/><path class="cls-13" d="M78.43,33.07c1.8-.29,3.63-.63,5.25.56.39.29,1.17.68.61,1.31-.4.46-.82,1.28-1.8.65-.77-.5-1.73-.51-2.64-.33-.4.08-.78.25-.83.72-.05.47.29.74.68.86.97.31,1.96.59,2.94.88,1.6.47,2.29,1.6,2.23,3.2-.06,1.63-.93,2.6-2.51,3.01-1.49.39-2.93.24-4.35-.29-1.84-1.1-1.9-1.44-.61-2.4.53-.4.84-.4,1.24.11.41.51,1,.69,1.64.8.97.16,1.85-.21,2.03-1.06.17-.79-.62-1.32-1.43-1.54-.55-.15-1.11-.27-1.63-.48-1.23-.47-2.47-.93-2.67-2.53-.2-1.6.42-2.74,1.84-3.48Z"/><path class="cls-13" d="M76.8,48.76c1.15,3.36,2.28,6.74,3.47,10.09.3.84-.03.99-.75.97-.45-.01-.9.05-1.35.08-.2-.81-.14-1.99-.95-2.21-1.12-.3-2.38-.14-3.57-.06-.52.04-.58.7-.65,1.1-.23,1.21-1.11,1.25-1.95,1.03-1.15-.3-.22-1.06-.09-1.47.86-2.89,1.83-5.75,2.75-8.63.2-.62.52-.97,1.23-.91.62.05,1.26,0,1.88,0ZM75.37,51.39c-.4,1.15-.77,2.16-1.08,3.18-.1.33-.39.88.21.97.66.1,1.44.17,1.99-.11.5-.25-.04-.9-.14-1.37-.2-.87-.38-1.75-.98-2.67Z"/><path class="cls-1" d="M80.2,79.09c1.07,3.26,1.99,6.05,2.91,8.83.19.57.02.85-.62.83-1.53-.03-3.07-.04-4.6-.03-.5,0-.77-.1-.58-.67.92-2.84,1.83-5.68,2.89-8.96Z"/><path class="cls-13" d="M119.22,35.98c.33-.17.65-.34.98-.51,2.75-.15,3.37.44,3.4,3.25.01,1.07-.12,2.16.03,3.21.23,1.7-.46,2.25-2.04,1.98,0,0-.05-.09-.05-.09,0,0-.1,0-.1,0,0-.84.1-1.69.01-2.52-.13-1.22.47-2.55-.49-3.67,0,0,.02-.07.02-.07-.15-.42-.45-.3-.74-.21-.46.02-.79.27-1.05.63-.72.26-.6.87-.6,1.43,0,1.48-.01,2.96-.02,4.44-1.57.34-2.22-.16-2.1-1.89.1-1.43.32-2.91-.2-4.34-.2-.35-.49-.41-.85-.3-1.34.27-1.89,1.07-1.77,2.44.09,1.02-.03,2.06.03,3.08.05.87-.35,1.05-1.12,1.06-.79,0-.96-.35-.95-1.04.03-2,0-4,.01-6,.01-1.21.92-1.83,1.8-1.1.52.43.67.45,1.16.14,1.23-.78,2.48-.73,3.67.12.37.8.66.24.96-.06Z"/><path class="cls-13" d="M122.95,90.88c0-1.39,0-2.79,0-4.18,3.53,0,7.07-.21,10.59.12,0,1.3,0,2.61,0,3.91-3.53.4-7.07.14-10.6.15Z"/><path class="cls-13" d="M124.32,59.93c-2.77-1.86-3.21-5.59-.94-7.97.94-.62,1.97-.88,3.09-.73,2.45.32,3.52,1.83,3.1,4.26-.11.64-.43.69-.92.69-1.2,0-2.39.04-3.59-.01-1.23-.06-1.05.61-.63,1.25.74,1.1,1.91,1.12,2.88.55.93-.54,1.53-.14,1.8.48.36.84-.53,1.1-1.13,1.3-.85.28-1.69.65-2.61.61-.09-.04-.19-.06-.29-.05-.14-.34-.42-.42-.75-.36ZM125.73,54.85c.54-.38,1.65.57,1.72-.69.05-.86-.75-1.26-1.54-1.26-.87,0-1.67.45-1.66,1.37.01,1.05.99.25,1.47.58Z"/><path class="cls-9" d="M142.15,74.37c.02,7.77.04,15.53.06,23.3-.88-.05-.73-.71-.73-1.26,0-6.9,0-13.8,0-20.7,0-.54-.17-1.2.67-1.34Z"/><path class="cls-9" d="M122.95,90.88c3.54,0,7.07.25,10.6-.15-.05.99-.8.77-1.39.78-1.82.02-3.63.01-5.45.02-.91,0-1.83-.01-2.74,0-.49,0-.93-.04-1.03-.64Z"/><path class="cls-9" d="M133.55,86.82c-3.53-.33-7.06-.11-10.59-.12.51-1.25,1.61-.42,2.4-.67,2.27,0,4.55,0,6.82,0,.58,0,1.34-.21,1.38.78Z"/><path class="cls-13" d="M104.43,59.82c-.06-.05-.13-.09-.21-.11.03-2.77.06-5.53.09-8.3,0,0,.13,0,.13,0,.64.23,1.43-.38,1.98.53.36.6.77-.13,1.11-.29,2.33-1.09,4.01-.15,4.11,2.38.06,1.59,0,3.19.03,4.78.02.72-.23,1.01-.97,1.02-.8.02-1.14-.23-1.1-1.06.05-1.14.04-2.28,0-3.41-.02-.77.24-1.71-.68-2.12-.84-.37-1.51.19-2.12.71-.92,1.83-.2,3.78-.4,5.66-.62.37-1.31.16-1.97.22Z"/><path class="cls-13" d="M101.87,35.65c.69,0,1.38,0,2.07,0,.06,1.93.11,3.86.17,5.8.08.87.67,1.03,1.34.8.85-.29,1.76-.61,1.77-1.78,0-1.25.03-2.5-.01-3.75-.02-.76.17-1.13,1.03-1.13.85,0,1.06.34,1.04,1.11-.04,2.05-.07,4.1,0,6.14.05,1.18-.82,1.37-1.38,1.01-1.03-.67-1.75-.21-2.6.18-.7.32-1.45.17-2.18-.02-.3-.29-.6-.58-.91-.88-.05-.1-.11-.2-.16-.3-.04-.12-.09-.24-.13-.36-.02-2.27-.04-4.54-.05-6.81Z"/><path class="cls-13" d="M115.72,55.63c0,2.44.89,3.1,3.17,2.18.85-.34,1.24.22,1.55.61.51.62-.29.86-.65,1.08-1.51.98-4.2.57-5.35-.75-1.31-1.5-1.29-4.58.04-6.23,1.12-1.4,3.46-1.79,5.15-.83.41.23,1.14.5.81,1.06-.29.48-.76,1.05-1.67.71-2.24-.84-3.05-.23-3.05,2.15Z"/><path class="cls-9" d="M118.57,43.86c0-1.48.01-2.96.02-4.44,0-.56-.12-1.17.6-1.43,0,1.51,0,3.01,0,4.52,0,.53.18,1.17-.61,1.35Z"/><path class="cls-9" d="M120.95,37.64c.96,1.11.36,2.44.49,3.67.09.83,0,1.68-.01,2.52-.8-.33-.51-1.05-.52-1.62-.02-1.52.02-3.05.04-4.57Z"/><path class="cls-11" d="M104.11,41.45c-.06-1.93-.11-3.86-.17-5.8.92.6.42,1.52.48,2.29.09,1.16.02,2.34.02,3.51,0,0-.17,0-.17,0h-.17Z"/><path class="cls-11" d="M106.39,59.6c.2-1.88-.52-3.83.4-5.66.01,1.45.04,2.89.03,4.34,0,.48.16,1.03-.44,1.32Z"/><path class="cls-11" d="M124.32,59.93c.34-.06.61.02.75.36-.32.01-.6-.03-.75-.36Z"/><path class="cls-9" d="M120.23,37.36c.29-.09.59-.21.74.21-.3.11-.56.09-.74-.21Z"/><path class="cls-11" d="M119.22,35.98c-.3.3-.59.87-.96.06.32-.02.64-.04.96-.06Z"/><path class="cls-11" d="M115.42,37.34c.36-.12.65-.05.85.3-.33.03-.65.04-.85-.3Z"/><path class="cls-13" d="M93.36,36.81c-.66.67-1.31,1.04-2.33.54-.73-.36-1.68-.21-2.1.62-.62,1.22-.68,2.56.09,3.74.53.83,1.42.86,2.3.52.31-.12.71-.43.9-.34.53.28,1.38.47,1.4,1.1.01.47-.63.88-1.29.85-.17,0-.34.02-.5.06-2.2.5-3.96.04-4.78-1.25-.94-1.47-.86-4.5.15-5.9,1.34-1.85,4.34-1.83,6.17.05Z"/><path class="cls-13" d="M86.31,48.3c.65-.54,1.43-.12,2.13-.3.01,3.87.02,7.74.04,11.61-.71.34-1.43.31-2.14,0,0-3.77-.02-7.54-.02-11.31Z"/><path class="cls-13" d="M84.12,59.6c-2.19.48-2.21.47-2.21-1.72,0-2.8-.02-5.59.01-8.39,0-.51-.33-1.27.48-1.44.63-.13,1.4-.25,1.76.59-.02,3.65-.03,7.3-.05,10.95Z"/><path class="cls-13" d="M92.84,59.64c-1.65.44-2.25-.17-2.09-1.87.13-1.41.14-2.86,0-4.27-.16-1.59.28-2.38,1.99-2.08.04,2.74.07,5.48.11,8.22Z"/><path class="cls-5" d="M92.84,59.64c-.04-2.74-.07-5.48-.11-8.22.25,0,.49-.01.74-.02,0,2.74,0,5.48,0,8.22-.21,0-.42,0-.63.01Z"/><path class="cls-13" d="M92.88,49.16c.01.77-.39,1.13-1.14,1.16-.58.02-.98-.11-1.02-.8-.04-.74.17-1.22,1-1.24.64-.02,1.13.12,1.17.89Z"/><path class="cls-5" d="M88.48,59.6c-.01-3.87-.02-7.74-.04-11.61.48.13.56.5.56.92,0,3.24,0,6.49,0,9.73,0,.41-.05.8-.53.95Z"/><path class="cls-5" d="M86.31,48.3c0,3.77.02,7.54.02,11.31-.13-.18-.36-.35-.36-.53-.02-3.41-.02-6.82,0-10.23,0-.18.22-.37.34-.55Z"/><path class="cls-5" d="M84.12,59.6c.02-3.65.03-7.3.05-10.95.46.31.38.79.38,1.23,0,2.84,0,5.68,0,8.53,0,.44.1.93-.43,1.19Z"/><path class="cls-13" d="M102.01,56.37c0,.74-.07,1.49.02,2.22.14,1.21-.65,1.54-1.42,1.16-.87-.44-1.44-.24-2.22.09-1.43.6-3.09-.14-3.56-1.45-.55-1.5.19-2.99,1.85-3.48.81-.24,1.68-.28,2.52-.4.36-.05.71-.13.72-.56,0-.47-.41-.47-.74-.53-.84-.14-1.68-.12-2.52.06-.76.16-1.47-.21-1.67-.85-.21-.71.54-1.01,1.11-1.27,2.97-1.35,5.91.46,5.92,3.65,0,.46,0,.91,0,1.37ZM99.94,56.92c.09-.75-.3-.89-.92-.82-.94.11-2.04-.03-2.12,1.34-.04.7.49,1.03,1.12.93.88-.13,1.81-.31,1.92-1.45Z"/><path class="cls-13" d="M97.29,43.86c-1.77.39-2.28-.35-2.13-2.08.16-1.76,0-3.54.05-5.31.03-1.13,1.03-1.71,1.64-.95.69.85,1.08.69,1.83.21.5-.32,1.29-.44,1.75.07.19.21-.06.85-.13,1.29-.09.58-.53.45-.93.46-.71.02-1.34.25-1.81.81-.59,1.81-.08,3.67-.28,5.5Z"/><path class="cls-5" d="M97.29,43.86c.2-1.83-.32-3.69.28-5.5.39,1.86.97,3.72-.28,5.5Z"/><path class="cls-11" d="M104.31,51.41c-.03,2.77-.06,5.53-.09,8.3-.7-.5-.44-1.24-.45-1.89-.03-1.65-.02-3.3,0-4.96,0-.53-.2-1.18.54-1.45Z"/><path class="cls-11" d="M101.87,35.65c.02,2.27.04,4.54.05,6.81-.48-.13-.57-.5-.57-.92,0-1.7,0-3.4,0-5.11,0-.37.13-.66.51-.79Z"/><path class="cls-5" d="M102.06,42.82c.05.1.11.2.16.3-.18-.03-.49,0-.16-.3Z"/><path class="cls-1" d="M75.37,51.39c.6.92.78,1.8.98,2.67.11.46.64,1.11.14,1.37-.55.28-1.33.21-1.99.11-.6-.09-.31-.64-.21-.97.32-1.02.69-2.03,1.08-3.18Z"/><path class="cls-5" d="M125.73,54.85c-.48-.33-1.46.47-1.47-.58-.01-.92.79-1.37,1.66-1.37.79,0,1.58.4,1.54,1.26-.07,1.26-1.19.31-1.72.69Z"/><path class="cls-3" d="M99.94,56.92c-.11,1.15-1.04,1.32-1.92,1.45-.63.09-1.16-.24-1.12-.93.08-1.37,1.19-1.24,2.12-1.34.62-.07,1.01.08.92.82Z"/></svg>