<?xml version="1.0" encoding="utf-8"?>
<!-- Generator: Adobe Illustrator 27.9.0, SVG Export Plug-In . SVG Version: 6.00 Build 0)  -->
<svg version="1.1" id="Layer_1" xmlns="http://www.w3.org/2000/svg" xmlns:xlink="http://www.w3.org/1999/xlink" x="0px" y="0px"
	 viewBox="0 0 200 200" style="enable-background:new 0 0 200 200;" xml:space="preserve">
<style type="text/css">
	.st0{fill:#0297D7;}
	.st1{fill:#FFFFFF;}
	.st2{fill:#CE0E2D;}
	.st3{fill:#6A747C;}
	.st4{fill:#499BD6;}
	.st5{fill:#2C398D;}
	.st6{fill:#002A73;}
</style>
<g id="Group_109" transform="translate(-205.97 -220.928)">
	<path id="Path_36" class="st4" d="M206,340.4l3-3.6c2.1,1.7,4.2,2.8,6.9,2.8c2.1,0,3.3-0.8,3.3-2.2v-0.1c0-1.3-0.8-1.9-4.6-2.9
		c-4.6-1.2-7.6-2.5-7.6-7v-0.1c0-4.2,3.4-6.9,8.1-6.9c3.1-0.1,6.1,1,8.6,2.9l-2.6,3.8c-2-1.4-4-2.3-6-2.3c-1.9,0-3,0.9-3,2v0.1
		c0,1.5,1,2,5,3c4.7,1.2,7.3,2.9,7.3,6.9v0.1c0,4.6-3.5,7.1-8.5,7.1C212.1,344.1,208.7,342.8,206,340.4z"/>
	<path id="Path_37" class="st4" d="M227.2,335L227.2,335c0-5.1,3.6-9.2,8.7-9.2c5.9,0,8.6,4.6,8.6,9.6c0,0.4,0,0.9-0.1,1.3h-12.3
		c0.3,2.1,2.2,3.6,4.3,3.5c1.6,0,3.2-0.6,4.3-1.8l2.9,2.5c-1.7,2.2-4.4,3.4-7.2,3.3C231.1,344.1,227.2,340.4,227.2,335z
		 M239.7,333.5c-0.3-2.2-1.6-3.8-3.7-3.8c-2.1,0-3.4,1.5-3.8,3.8H239.7z"/>
	<path id="Path_38" class="st4" d="M248.2,326.1h5v3.6c1-2.4,2.7-4,5.6-3.9v5.2h-0.3c-3.3,0-5.4,2-5.4,6.2v6.5h-5V326.1z"/>
	<path id="Path_39" class="st4" d="M260.4,326.1h5.3l3.9,11.8l4-11.8h5.2l-6.9,17.8h-4.5L260.4,326.1z"/>
	<path id="Path_40" class="st5" d="M280.7,340.4l3-3.6c2.1,1.7,4.2,2.8,6.9,2.8c2.1,0,3.3-0.8,3.3-2.2v-0.1c0-1.3-0.8-1.9-4.6-2.9
		c-4.6-1.2-7.6-2.5-7.6-7v-0.1c0-4.2,3.4-6.9,8.1-6.9c3.1-0.1,6.1,1,8.6,2.9l-2.6,3.8c-2-1.4-4-2.3-6-2.3c-1.9,0-3,0.9-3,2v0.1
		c0,1.5,1,2,5,3c4.7,1.2,7.3,2.9,7.3,6.9v0.1c0,4.6-3.5,7.1-8.5,7.1C286.9,344.1,283.4,342.8,280.7,340.4z"/>
	<path id="Path_41" class="st5" d="M301.7,338.7L301.7,338.7c0-3.9,2.9-5.7,7.1-5.7c1.5,0,2.9,0.2,4.3,0.7v-0.3
		c0-2.1-1.3-3.2-3.8-3.2c-1.7,0-3.3,0.3-4.9,1l-1.2-3.8c2.1-1,4.5-1.5,6.8-1.4c2.7,0,4.7,0.7,6,2c1.3,1.3,1.9,3.3,1.9,5.6v10.2h-4.8
		v-1.9c-1.4,1.5-3.3,2.3-5.3,2.2C304.5,344.1,301.7,342.1,301.7,338.7z M313.2,337.5v-0.9c-1-0.4-2.1-0.7-3.2-0.7
		c-2.1,0-3.5,0.9-3.5,2.4v0.1c0,1.4,1.1,2.1,2.7,2.1C311.6,340.6,313.2,339.3,313.2,337.5L313.2,337.5z"/>
	<path id="Path_42" class="st5" d="M323.1,330.4H321v-4.1h2.1v-1.1c0-1.9,0.5-3.4,1.4-4.3s2.3-1.4,4-1.4c1.2,0,2.4,0.1,3.6,0.5v4.1
		c-0.7-0.3-1.5-0.4-2.3-0.4c-1.2,0-1.8,0.6-1.8,1.9v0.7h4v4.1h-4v13.4h-5L323.1,330.4z"/>
	<path id="Path_43" class="st5" d="M333.6,335L333.6,335c0-5.1,3.6-9.2,8.7-9.2c5.9,0,8.6,4.6,8.6,9.6c0,0.4,0,0.9-0.1,1.3h-12.3
		c0.3,2.1,2.2,3.6,4.3,3.5c1.6,0,3.2-0.6,4.3-1.8l2.9,2.5c-1.7,2.2-4.4,3.4-7.2,3.3C337.6,344.1,333.6,340.4,333.6,335z
		 M346.1,333.5c-0.3-2.2-1.6-3.8-3.7-3.8c-2.1,0-3.4,1.5-3.8,3.8H346.1z"/>
	<path id="Path_44" class="st5" d="M209,348.2h0.7l3.9,5v-5h0.7v6.2h-0.6l-4-5.1v5.1H209L209,348.2z"/>
	<path id="Path_45" class="st5" d="M215.5,353.1L215.5,353.1c0-1,0.8-1.5,2-1.5c0.5,0,0.9,0.1,1.4,0.2v-0.1c0-0.8-0.5-1.2-1.4-1.2
		c-0.5,0-1,0.1-1.4,0.3l-0.2-0.6c0.5-0.3,1.1-0.4,1.7-0.4c0.5,0,1.1,0.1,1.5,0.5c0.3,0.4,0.5,0.9,0.5,1.4v2.8h-0.7v-0.7
		c-0.4,0.5-1,0.8-1.7,0.8C216.4,354.6,215.6,354,215.5,353.1C215.5,353.1,215.5,353.1,215.5,353.1z M218.9,352.7v-0.4
		c-0.4-0.1-0.9-0.2-1.3-0.2c-0.9,0-1.3,0.4-1.3,0.9v0c0,0.6,0.5,0.9,1.2,0.9C218.1,354,218.8,353.5,218.9,352.7
		C218.9,352.7,218.9,352.7,218.9,352.7L218.9,352.7z"/>
	<path id="Path_46" class="st5" d="M221.2,353.2v-2.8h-0.6v-0.6h0.6v-1.4h0.7v1.4h1.5v0.6h-1.5v2.7c0,0.4,0.2,0.7,0.6,0.8
		c0.1,0,0.1,0,0.2,0c0.2,0,0.5-0.1,0.7-0.2v0.6c-0.3,0.1-0.5,0.2-0.8,0.2c-0.6,0.1-1.2-0.4-1.3-1
		C221.2,353.4,221.2,353.3,221.2,353.2z"/>
	<path id="Path_47" class="st5" d="M224.6,348h0.8v0.8h-0.8V348z M224.6,349.8h0.7v4.6h-0.7L224.6,349.8z"/>
	<path id="Path_48" class="st5" d="M226.6,352.1L226.6,352.1c0-1.3,1.1-2.4,2.4-2.4c1.3,0,2.3,1.1,2.4,2.3v0c0,1.3-1.1,2.4-2.4,2.4
		c0,0,0,0,0,0C227.7,354.5,226.6,353.5,226.6,352.1C226.6,352.2,226.6,352.1,226.6,352.1z M230.7,352.1L230.7,352.1
		c0-1-0.7-1.8-1.7-1.8c0,0,0,0,0,0c-0.9,0-1.7,0.8-1.7,1.7c0,0,0,0,0,0.1v0c0,1,0.7,1.8,1.7,1.8c0,0,0,0,0,0
		C230,353.9,230.7,353.1,230.7,352.1C230.7,352.2,230.7,352.1,230.7,352.1L230.7,352.1z"/>
	<path id="Path_49" class="st5" d="M232.6,349.8h0.7v0.8c0.3-0.6,0.9-0.9,1.6-0.9c0.9,0,1.7,0.7,1.8,1.6c0,0.1,0,0.2,0,0.3v2.9H236
		v-2.7c0.1-0.7-0.4-1.3-1.1-1.4c-0.1,0-0.1,0-0.2,0c-0.7,0-1.4,0.6-1.4,1.3c0,0,0,0.1,0,0.1v2.6h-0.7L232.6,349.8z"/>
	<path id="Path_50" class="st5" d="M237.8,353.1L237.8,353.1c0-1,0.8-1.5,2-1.5c0.5,0,0.9,0.1,1.4,0.2v-0.1c0-0.8-0.5-1.2-1.4-1.2
		c-0.5,0-1,0.1-1.4,0.3l-0.2-0.6c0.5-0.3,1.1-0.4,1.7-0.4c0.5,0,1.1,0.1,1.5,0.5c0.3,0.4,0.5,0.9,0.5,1.4v2.8h-0.7v-0.7
		c-0.4,0.5-1,0.8-1.7,0.8C238.6,354.6,237.9,354,237.8,353.1C237.8,353.1,237.8,353.1,237.8,353.1z M241.2,352.7v-0.4
		c-0.4-0.1-0.9-0.2-1.3-0.2c-0.9,0-1.3,0.4-1.3,0.9v0c0,0.6,0.5,0.9,1.2,0.9C240.4,354,241.1,353.5,241.2,352.7
		C241.2,352.7,241.2,352.7,241.2,352.7z"/>
	<path id="Path_51" class="st5" d="M243.3,347.9h0.7v6.5h-0.7V347.9z"/>
	<path id="Path_52" class="st5" d="M248.4,348.2h2.7c0.6,0,1.3,0.2,1.8,0.6c0.3,0.3,0.5,0.8,0.5,1.2v0c0,1-0.7,1.7-1.7,1.8l1.9,2.5
		h-0.9l-1.8-2.4h-1.8v2.4h-0.7L248.4,348.2z M251,351.3c0.9,0,1.6-0.5,1.6-1.3v0c0-0.8-0.6-1.2-1.6-1.2h-1.9v2.5L251,351.3z"/>
	<path id="Path_53" class="st5" d="M256.6,353.9c0.6,0,1.1-0.2,1.4-0.6l0.4,0.4c-0.5,0.6-1.2,0.9-1.9,0.9c-1.3-0.1-2.4-1.2-2.3-2.5
		c0.1-1.2,1-2.2,2.2-2.3c1.4,0,2.1,1.1,2.1,2.4c0,0.1,0,0.1,0,0.2H255C255.1,353.2,255.8,353.9,256.6,353.9z M258,351.8
		c0-0.8-0.6-1.5-1.5-1.5c-0.8,0-1.5,0.7-1.5,1.5H258z"/>
	<path id="Path_54" class="st5" d="M259.5,353.8l0.3-0.5c0.5,0.4,1,0.6,1.6,0.6c0.6,0,1-0.3,1-0.7v0c0-0.5-0.5-0.6-1.1-0.8
		c-0.7-0.2-1.5-0.5-1.5-1.3v0c0-0.8,0.7-1.4,1.5-1.3c0,0,0.1,0,0.1,0c0.6,0,1.2,0.2,1.7,0.5l-0.3,0.5c-0.4-0.3-0.9-0.4-1.4-0.4
		c-0.5,0-0.9,0.3-0.9,0.7v0c0,0.4,0.6,0.6,1.2,0.8c0.7,0.2,1.5,0.5,1.5,1.3v0c0,0.9-0.7,1.4-1.6,1.4
		C260.7,354.5,260,354.2,259.5,353.8z"/>
	<path id="Path_55" class="st5" d="M264.5,353.2v-2.8h-0.6v-0.6h0.6v-1.4h0.7v1.4h1.5v0.6h-1.5v2.7c0,0.4,0.2,0.7,0.6,0.8
		c0.1,0,0.1,0,0.2,0c0.2,0,0.5-0.1,0.7-0.2v0.6c-0.3,0.1-0.5,0.2-0.8,0.2c-0.6,0.1-1.2-0.4-1.3-1
		C264.4,353.4,264.4,353.3,264.5,353.2z"/>
	<path id="Path_56" class="st5" d="M267.5,353.1L267.5,353.1c0-1,0.8-1.5,2-1.5c0.5,0,0.9,0.1,1.4,0.2v-0.1c0-0.8-0.5-1.2-1.4-1.2
		c-0.5,0-1,0.1-1.4,0.3l-0.2-0.6c0.5-0.3,1.1-0.4,1.7-0.4c0.5,0,1.1,0.1,1.5,0.5c0.3,0.4,0.5,0.9,0.5,1.4v2.8h-0.7v-0.7
		c-0.4,0.5-1,0.8-1.7,0.8C268.3,354.6,267.6,354,267.5,353.1C267.5,353.1,267.5,353.1,267.5,353.1z M270.8,352.7v-0.4
		c-0.4-0.1-0.9-0.2-1.3-0.2c-0.9,0-1.3,0.4-1.3,0.9v0c0,0.6,0.5,0.9,1.2,0.9C270.1,354,270.7,353.5,270.8,352.7
		C270.8,352.7,270.8,352.7,270.8,352.7L270.8,352.7z"/>
	<path id="Path_57" class="st5" d="M272.9,352.7v-2.9h0.7v2.7c-0.1,0.7,0.4,1.3,1.1,1.4c0.1,0,0.1,0,0.2,0c0.7,0,1.4-0.6,1.4-1.3
		c0,0,0-0.1,0-0.1v-2.6h0.7v4.6h-0.7v-0.8c-0.3,0.6-0.9,0.9-1.6,0.9c-0.9,0-1.7-0.7-1.8-1.6C272.9,352.8,272.9,352.7,272.9,352.7z"
		/>
	<path id="Path_58" class="st5" d="M278.4,349.8h0.7v1.2c0.3-0.8,1-1.3,1.9-1.3v0.7h-0.1c-1,0-1.8,0.7-1.8,2.1v1.8h-0.7L278.4,349.8
		z"/>
	<path id="Path_59" class="st5" d="M281.5,353.1L281.5,353.1c0-1,0.8-1.5,2-1.5c0.5,0,0.9,0.1,1.4,0.2v-0.1c0-0.8-0.5-1.2-1.4-1.2
		c-0.5,0-1,0.1-1.4,0.3l-0.2-0.6c0.5-0.3,1.1-0.4,1.7-0.4c0.5,0,1.1,0.1,1.5,0.5c0.3,0.4,0.5,0.9,0.5,1.4v2.8h-0.7v-0.7
		c-0.4,0.5-1,0.8-1.7,0.8C282.3,354.6,281.6,354,281.5,353.1C281.5,353.1,281.5,353.1,281.5,353.1z M284.8,352.7v-0.4
		c-0.4-0.1-0.9-0.2-1.3-0.2c-0.9,0-1.3,0.4-1.3,0.9v0c0,0.6,0.5,0.9,1.2,0.9C284.1,354,284.8,353.5,284.8,352.7
		C284.8,352.7,284.8,352.7,284.8,352.7L284.8,352.7z"/>
	<path id="Path_60" class="st5" d="M287,349.8h0.7v0.8c0.3-0.6,0.9-0.9,1.6-0.9c0.9,0,1.7,0.7,1.8,1.6c0,0.1,0,0.2,0,0.3v2.9h-0.7
		v-2.7c0.1-0.7-0.4-1.3-1.1-1.4c-0.1,0-0.1,0-0.2,0c-0.7,0-1.4,0.6-1.4,1.3c0,0,0,0.1,0,0.1v2.6H287L287,349.8z"/>
	<path id="Path_61" class="st5" d="M292.7,353.2v-2.8H292v-0.6h0.6v-1.4h0.7v1.4h1.5v0.6h-1.5v2.7c0,0.4,0.2,0.7,0.6,0.8
		c0.1,0,0.1,0,0.2,0c0.2,0,0.5-0.1,0.7-0.2v0.6c-0.3,0.1-0.5,0.2-0.8,0.2c-0.6,0.1-1.2-0.4-1.3-1
		C292.7,353.4,292.7,353.3,292.7,353.2z"/>
	<path id="Path_62" class="st5" d="M301.1,348.1h0.7l2.8,6.3h-0.8l-0.7-1.6h-3.4l-0.7,1.6h-0.7L301.1,348.1z M302.8,352.1l-1.4-3.2
		l-1.4,3.2H302.8z"/>
	<path id="Path_63" class="st5" d="M305.3,353.8l0.3-0.5c0.5,0.4,1,0.6,1.6,0.6c0.6,0,1-0.3,1-0.7v0c0-0.5-0.5-0.6-1.1-0.8
		c-0.7-0.2-1.5-0.5-1.5-1.3v0c0-0.8,0.7-1.4,1.5-1.3c0,0,0.1,0,0.1,0c0.6,0,1.2,0.2,1.7,0.5l-0.3,0.5c-0.4-0.3-0.9-0.4-1.4-0.4
		c-0.5,0-0.9,0.3-0.9,0.7v0c0,0.4,0.6,0.6,1.2,0.8c0.7,0.2,1.5,0.5,1.5,1.3v0c0,0.9-0.7,1.4-1.6,1.4
		C306.5,354.5,305.9,354.2,305.3,353.8z"/>
	<path id="Path_64" class="st5" d="M309.7,353.8l0.3-0.5c0.5,0.4,1,0.6,1.6,0.6c0.6,0,1-0.3,1-0.7v0c0-0.5-0.5-0.6-1.1-0.8
		c-0.7-0.2-1.5-0.5-1.5-1.3v0c0-0.8,0.7-1.4,1.5-1.3c0,0,0.1,0,0.1,0c0.6,0,1.2,0.2,1.7,0.5l-0.3,0.5c-0.4-0.3-0.9-0.4-1.4-0.4
		c-0.5,0-0.9,0.3-0.9,0.7v0c0,0.4,0.6,0.6,1.2,0.8c0.7,0.2,1.5,0.5,1.5,1.3v0c0,0.9-0.7,1.4-1.6,1.4
		C310.9,354.5,310.2,354.2,309.7,353.8z"/>
	<path id="Path_65" class="st5" d="M314.2,352.1L314.2,352.1c0-1.3,1.1-2.4,2.4-2.4c1.3,0,2.4,1.1,2.4,2.4l0,0v0
		c0,1.3-1.1,2.4-2.4,2.4c0,0,0,0,0,0C315.3,354.5,314.2,353.5,314.2,352.1C314.2,352.2,314.2,352.1,314.2,352.1z M318.3,352.1
		L318.3,352.1c0-1-0.7-1.8-1.7-1.8c0,0,0,0,0,0c-0.9,0-1.7,0.8-1.7,1.7c0,0,0,0,0,0.1v0c0,1,0.7,1.8,1.7,1.8c0,0,0,0,0,0
		C317.5,353.9,318.3,353.1,318.3,352.1C318.3,352.2,318.3,352.1,318.3,352.1L318.3,352.1z"/>
	<path id="Path_66" class="st5" d="M319.9,352.1L319.9,352.1c0-1.3,1.1-2.4,2.4-2.4c0.7,0,1.3,0.3,1.8,0.8l-0.5,0.5
		c-0.3-0.4-0.9-0.7-1.4-0.7c-0.9,0-1.7,0.8-1.6,1.7c0,0,0,0,0,0v0c0,0.9,0.7,1.7,1.6,1.8c0,0,0,0,0,0c0.5,0,1.1-0.3,1.4-0.7l0.4,0.4
		c-0.8,1-2.3,1.2-3.3,0.4C320.3,353.5,319.9,352.8,319.9,352.1L319.9,352.1z"/>
	<path id="Path_67" class="st5" d="M325.3,348h0.8v0.8h-0.8V348z M325.4,349.8h0.7v4.6h-0.7V349.8z"/>
	<path id="Path_68" class="st5" d="M327.3,353.1L327.3,353.1c0-1,0.8-1.5,2-1.5c0.5,0,0.9,0.1,1.4,0.2v-0.1c0-0.8-0.5-1.2-1.4-1.2
		c-0.5,0-1,0.1-1.4,0.3l-0.2-0.6c0.5-0.3,1.1-0.4,1.7-0.4c0.5,0,1.1,0.1,1.5,0.5c0.3,0.4,0.5,0.9,0.5,1.4v2.8h-0.7v-0.7
		c-0.4,0.5-1,0.8-1.7,0.8C328.2,354.6,327.4,354,327.3,353.1C327.3,353.1,327.3,353.1,327.3,353.1z M330.7,352.7v-0.4
		c-0.4-0.1-0.9-0.2-1.3-0.2c-0.9,0-1.3,0.4-1.3,0.9v0c0,0.6,0.5,0.9,1.2,0.9C329.9,354,330.6,353.5,330.7,352.7
		C330.7,352.7,330.7,352.7,330.7,352.7z"/>
	<path id="Path_69" class="st5" d="M333,353.2v-2.8h-0.6v-0.6h0.6v-1.4h0.7v1.4h1.5v0.6h-1.5v2.7c0,0.4,0.2,0.7,0.6,0.8
		c0.1,0,0.1,0,0.2,0c0.2,0,0.5-0.1,0.7-0.2v0.6c-0.3,0.1-0.5,0.2-0.8,0.2c-0.6,0.1-1.2-0.4-1.3-1C333,353.4,333,353.3,333,353.2z"/>
	<path id="Path_70" class="st5" d="M336.4,348h0.8v0.8h-0.8V348z M336.4,349.8h0.7v4.6h-0.7V349.8z"/>
	<path id="Path_71" class="st6" d="M338.4,352.1L338.4,352.1c0-1.3,1.1-2.4,2.4-2.4c1.3,0,2.3,1.1,2.4,2.3v0c0,1.3-1.1,2.4-2.4,2.4
		c0,0,0,0,0,0C339.5,354.5,338.4,353.5,338.4,352.1C338.4,352.2,338.4,352.1,338.4,352.1z M342.5,352.1L342.5,352.1
		c0-1-0.7-1.8-1.7-1.8c0,0,0,0,0,0c-0.9,0-1.7,0.8-1.7,1.7c0,0,0,0,0,0.1v0c0,1,0.7,1.8,1.7,1.8c0,0,0,0,0,0
		C341.7,353.9,342.5,353.1,342.5,352.1C342.5,352.2,342.5,352.1,342.5,352.1z"/>
	<path id="Path_72" class="st5" d="M344.4,349.8h0.7v0.8c0.3-0.6,0.9-0.9,1.6-0.9c0.9,0,1.7,0.7,1.8,1.6c0,0.1,0,0.2,0,0.3v2.9h-0.7
		v-2.7c0.1-0.7-0.4-1.3-1.1-1.4c-0.1,0-0.1,0-0.2,0c-0.7,0-1.4,0.6-1.4,1.3c0,0,0,0.1,0,0.1v2.6h-0.7L344.4,349.8z"/>
	<path id="Path_73" class="st6" d="M369.5,333.5c0,0-0.1,0-0.1,0c-0.2,0-0.3,0.2-0.3,0.4c0,0.1,0.1,0.3,0.3,0.3l0.1,0
		c2.8,0.4,5.5,0.9,8.1,1.5c1.8,0.4,3.5,0.9,5.1,1.3c0.2-0.6,0.4-1.2,0.5-1.8C378.6,334.4,374.1,333.8,369.5,333.5z"/>
	<path id="Path_74" class="st5" d="M385.4,335.7c-0.3,0.7-0.6,1.3-0.9,1.9c8.4,2.8,13.6,6.7,13.6,10.9c0,5.5-8.5,10.3-21.5,13.1
		c-7,1.1-14,1.6-21.1,1.6c-6.5,0-13.1-0.4-19.6-1.4c-0.1,0-0.1,0-0.1,0c-0.2,0-0.3,0.2-0.3,0.4c0,0.1,0.1,0.3,0.2,0.3l0.1,0
		c1.4,0.4,3,0.7,4.9,1.1c0,0,0,0,0,0c0,0,0,0,0,0c0.8,0.2,1.7,0.3,2.6,0.4c6.2,1,12.5,1.6,18.8,1.5c12.4,0,23.5-1.8,31.6-4.7
		c8.1-2.9,12.1-7,12.1-11.4C406,343.7,397.9,338.6,385.4,335.7z"/>
	<path id="Path_75" class="st4" d="M346.1,276.2c-12.5,0-24.4,5.5-32.5,14.9c0,0-0.1,0.1-0.1,0.1c0,0,0,0.1,0,0.1
		c0,0.2,0.2,0.4,0.4,0.4c0.1,0,0.1,0,0.2-0.1c0,0,0,0,0.1,0c18-15.3,45-13.1,60.3,4.8c9.1,10.7,12.4,25.2,8.7,38.8
		c-0.2,0.6-0.3,1.2-0.5,1.8c-0.8,2.7-1.9,5.2-3.3,7.7c0,0,0,0,0,0.1c0,0,0,0.1,0,0.1c0,0.2,0.2,0.4,0.4,0.4c0,0,0,0,0,0
		c0.1,0,0.2,0,0.2-0.1c0,0,0.1-0.1,0.1-0.1c1.8-2.3,3.3-4.8,4.6-7.4c0.3-0.6,0.6-1.3,0.9-1.9c9.3-21.7-0.7-46.8-22.4-56.1
		C357.7,277.3,351.9,276.2,346.1,276.2L346.1,276.2z"/>
	<g id="Group_108" transform="translate(509.637 354.272)">
		<g id="Group_107" transform="translate(0)">
			<path id="Path_76" class="st5" d="M-110,7h-0.9V6.6h2.2V7h-0.9v2.3h-0.5L-110,7z M-108,6.6h0.6l0.8,1.3l0.8-1.3h0.5v2.8h-0.5v-2
				l-0.9,1.3h-0.1l-0.8-1.3v2h-0.5L-108,6.6z"/>
		</g>
	</g>
</g>
</svg>
