<?xml version="1.0" encoding="UTF-8"?>
<svg id="Layer_2" data-name="Layer 2" xmlns="http://www.w3.org/2000/svg" xmlns:xlink="http://www.w3.org/1999/xlink" viewBox="0 0 200 200">
  <defs>
    <style>
      .cls-1 {
        fill: #0a3371;
      }

      .cls-1, .cls-2, .cls-3 {
        stroke-width: 0px;
      }

      .cls-4 {
        mask: url(#mask-2);
      }

      .cls-2 {
        fill: #fff;
      }

      .cls-3 {
        fill: #36b4e5;
      }

      .cls-5 {
        mask: url(#mask-1);
      }

      .cls-6 {
        mask: url(#mask);
      }
    </style>
    <mask id="mask" x="-4.82" y="41.04" width="209.63" height="117.92" maskUnits="userSpaceOnUse">
      <g id="mask1_1170_2061" data-name="mask1 1170 2061">
        <path class="cls-2" d="m204.81,41.04H-4.82v117.92h209.63V41.04Z"/>
      </g>
    </mask>
    <mask id="mask-1" x="-4.82" y="41.04" width="209.63" height="117.92" maskUnits="userSpaceOnUse">
      <g id="mask2_1170_2061" data-name="mask2 1170 2061">
        <path class="cls-2" d="m204.81,41.04H-4.82v117.92h209.63V41.04Z"/>
      </g>
    </mask>
    <mask id="mask-2" x="-4.82" y="41.04" width="209.63" height="117.92" maskUnits="userSpaceOnUse">
      <g id="mask4_1170_2061" data-name="mask4 1170 2061">
        <path class="cls-2" d="m204.81,41.04H-4.82v117.92h209.63V41.04Z"/>
      </g>
    </mask>
  </defs>
  <g id="Layer_1-2" data-name="Layer 1">
    <g>
      <circle class="cls-1" cx="100" cy="100" r="100"/>
      <g>
        <path class="cls-3" d="m96.76,94.46c0-11.94-.12-17.6-3.86-17.6s-3.92,5.6-3.92,17.6.12,17.55,3.91,17.55,3.86-5.6,3.86-17.54m-13.93,18.03c-2.3-3.42-2.92-9.33-2.92-18.03s.62-14.68,2.92-18.1c2.25-3.37,5.54-4.98,10.08-4.98s7.77,1.62,10.01,4.98c2.3,3.42,2.92,9.33,2.92,18.1s-.62,14.62-2.92,18.03c-2.23,3.36-5.53,4.97-10.01,4.97s-7.84-1.62-10.08-4.98"/>
        <path class="cls-3" d="m140.8,79.16c0-1.18-.81-1.49-2.8-1.55v-5.16h11.57v5.17h-.56c-1.81,0-2.37.31-2.67,1.93l-7.22,36.93h-8.21l-3.48-28.98-4.55,28.98h-8.33l-6.78-37.25c-.18-1.18-.75-1.68-2.11-1.68-.25,0-.5.06-.81.06v-5.16h14.06v5.17c-1.93.06-2.67.37-2.67,1.55-.01.19.01.38.06.56l3.79,25.44,3.79-25.44c.05-.18.07-.37.06-.56,0-1.18-.75-1.49-2.73-1.55v-5.17h14.56v5.17c-1.99.06-2.67.37-2.67,1.62,0,.12.06.31.06.5l3.36,25.44,4.23-25.44c0-.18.06-.36.06-.56"/>
        <path class="cls-3" d="m163.28,111.31v5.16h-12.13v-5.16c2.55-.06,3.17-.81,3.17-3.05v-27.61c0-2.24-.62-2.99-3.17-3.05v-5.16h12.25l10.08,28.3v-20.09c0-2.24-.81-3.05-3.17-3.05v-5.16h12.19v5.17c-2.55.06-3.17.81-3.17,3.05v35.81h-8.15l-11.07-31.22v23.01c0,2.24.81,3.05,3.17,3.05Z"/>
        <path class="cls-3" d="m79.3,72.44h-29.04v11.27h4.47c.47-4.44,1.8-6.43,5.61-6.61v31.16c0,2.24-.62,3.05-3.17,3.05h-1.18v5.16h17.6v-5.16h-1.24c-2.55,0-3.17-.81-3.17-3.05v-31.16c3.81.18,5.11,2.16,5.58,6.61h4.55v-11.27Z"/>
        <path class="cls-2" d="m17.5,67.28v5.16c2.55.06,3.17.81,3.17,3.05v32.77c0,2.24-.62,2.99-3.17,3.05v5.16h31.17v-17.31h-4.48c0,9.48-1.77,12.14-8.39,12.14h-6.36v-17.66h.32c3.3,0,5.52.79,5.58,5.52h3.98v-15.45h-3.99c-.13,4.55-2.34,5.28-5.58,5.28h-.31v-16.55h6.36c6.22,0,8.4,2.39,8.4,11.27h4.48v-16.43h-31.17Z"/>
        <path class="cls-3" d="m20.68,123.78h3.7v1.13h-2.1v2.54h1.65v1.12h-1.65v2.93h2.12v1.1h-3.72v-8.81Z"/>
        <path class="cls-3" d="m27.9,123.78h1.6v7.72h2.14v1.1h-3.74v-8.81Z"/>
        <path class="cls-3" d="m36.7,123.78h-1.59v8.81h1.59v-8.81Z"/>
        <path class="cls-3" d="m40.26,131.56l2.36-6.67h-2.24v-1.11h3.86v.83l-2.46,6.89h2.47v1.1h-3.99v-1.03Z"/>
        <path class="cls-3" d="m50.77,129.53l-.6-3.7-.6,3.7h1.2Zm-1.47-5.76h1.72l1.76,8.81h-1.49l-.35-2.04h-1.53l-.36,2.04h-1.51l1.76-8.81Z"/>
        <g class="cls-6">
          <path class="cls-3" d="m58.47,131.46c.47,0,.8-.11.98-.34.18-.23.27-.6.27-1.11s-.1-.91-.3-1.16-.53-.36-1.01-.36h-.57v2.97h.62Zm-.07-4.08c.47,0,.78-.1.95-.31s.25-.55.25-1.01-.11-.76-.33-.92c-.22-.16-.59-.24-1.1-.24h-.33v2.48h.55Zm-2.15-3.6h2.17c.83,0,1.47.17,1.92.51.44.34.66.92.66,1.75.03.44-.09.88-.33,1.26-.11.15-.25.28-.42.37-.16.09-.34.15-.53.17,1.02.2,1.52.92,1.52,2.18,0,.85-.21,1.49-.62,1.92-.41.43-1.03.65-1.84.65h-2.55v-8.82Z"/>
        </g>
        <path class="cls-3" d="m64.8,123.78h3.7v1.13h-2.1v2.54h1.65v1.12h-1.65v2.93h2.12v1.1h-3.72v-8.81Z"/>
        <path class="cls-3" d="m73.17,124.96h-1.4v-1.19h4.39v1.19h-1.37v7.63h-1.61v-7.63Z"/>
        <path class="cls-3" d="m79.59,123.78h1.6v3.68h1.8v-3.68h1.61v8.81h-1.61v-3.98h-1.8v3.98h-1.6v-8.81Z"/>
        <path class="cls-3" d="m89.44,124.96h-1.4v-1.19h4.39v1.19h-1.37v7.63h-1.61v-7.63Z"/>
        <g class="cls-5">
          <path class="cls-3" d="m98.94,131.19c.14-.31.2-.64.18-.98v-4.06c.02-.33-.04-.67-.18-.97-.12-.22-.36-.33-.73-.33s-.61.11-.73.33c-.14.3-.2.63-.18.96v4.05c-.02.34.04.67.18.98.12.23.36.34.73.34s.6-.11.72-.34m-2.68.79c-.39-.49-.59-1.2-.59-2.15v-3.3c0-.94.2-1.64.59-2.12.39-.48,1.04-.73,1.96-.73s1.56.24,1.95.73c.39.49.59,1.19.59,2.12v3.31c0,.94-.2,1.65-.59,2.14-.4.49-1.04.74-1.94.74-.91,0-1.57-.24-1.96-.73"/>
        </g>
        <path class="cls-3" d="m104.07,123.78h1.34l.73,5.71.91-5.69h1.09l.95,5.69.72-5.71h1.33l-1.23,8.81h-1.31l-.98-5.91-.97,5.91h-1.34l-1.24-8.81Z"/>
        <path class="cls-3" d="m114.65,123.78h1.12l2.14,5.03v-5.03h1.33v8.81h-1.07l-2.16-5.27v5.27h-1.37v-8.81Z"/>
        <path class="cls-3" d="m128.97,131.94c-.38-.51-.57-1.23-.57-2.17v-3.14c0-.97.19-1.7.57-2.2s1.03-.75,1.95-.75c.86,0,1.48.22,1.84.65.36.44.54,1.06.55,1.88v.74h-1.54v-.76c0-.24-.01-.49-.04-.73-.02-.17-.1-.32-.22-.43-.16-.13-.36-.19-.56-.17-.21-.02-.42.05-.59.18-.13.13-.22.3-.25.48-.04.26-.06.52-.06.78v3.82c0,.5.07.86.2,1.08.13.22.36.33.71.33.2.01.4-.05.55-.18.12-.13.2-.29.23-.46.04-.25.05-.51.05-.77v-.79h1.55v.71c0,.85-.18,1.51-.53,1.98-.36.47-.97.7-1.85.7s-1.56-.26-1.94-.77"/>
        <path class="cls-3" d="m140.08,131.19c.14-.31.2-.64.18-.98v-4.06c.02-.33-.04-.67-.18-.97-.12-.22-.36-.33-.73-.33s-.61.11-.73.33c-.14.3-.2.63-.18.96v4.05c-.02.34.04.67.18.98.12.23.36.34.73.34s.6-.11.72-.34m-2.68.79c-.39-.49-.59-1.2-.59-2.15v-3.3c0-.94.2-1.64.59-2.12.39-.48,1.04-.72,1.96-.73.91,0,1.56.24,1.95.73.39.49.59,1.19.59,2.12v3.31c0,.94-.2,1.65-.59,2.14-.4.49-1.04.74-1.94.74-.91,0-1.57-.24-1.96-.73"/>
        <path class="cls-3" d="m145.53,123.78h1.6v7.72h2.14v1.1h-3.74v-8.81Z"/>
        <path class="cls-3" d="m152.72,123.78h1.6v7.72h2.14v1.1h-3.74v-8.81Z"/>
        <path class="cls-3" d="m159.92,123.78h3.7v1.13h-2.1v2.54h1.65v1.12h-1.65v2.93h2.12v1.1h-3.72v-8.81Z"/>
        <g class="cls-4">
          <path class="cls-3" d="m167.51,131.93c-.36-.52-.55-1.27-.55-2.25v-2.96c0-1.01.19-1.77.57-2.28.38-.51,1.03-.77,1.95-.77.87,0,1.5.22,1.87.65.38.43.57,1.07.57,1.92v.46h-1.53v-.51c0-.26-.01-.51-.06-.76-.03-.17-.12-.32-.25-.43-.17-.11-.37-.17-.57-.15-.11,0-.22,0-.32.04-.1.03-.2.09-.28.16-.13.14-.22.31-.25.5-.04.26-.06.53-.06.79v3.69c-.02.38.05.77.2,1.12.13.25.39.36.76.36.15.01.3-.02.44-.08.13-.07.25-.18.32-.31.16-.37.24-.77.21-1.17v-.83h-.95v-1.01h2.39v4.47h-1.04l-.11-.86c-.11.3-.31.56-.58.74-.27.18-.59.26-.91.24-.84,0-1.44-.26-1.8-.78"/>
        </g>
        <path class="cls-3" d="m175.61,123.78h3.7v1.13h-2.1v2.54h1.65v1.12h-1.65v2.93h2.12v1.1h-3.72v-8.81Z"/>
      </g>
    </g>
  </g>
</svg>