<?xml version="1.0" encoding="UTF-8"?>
<svg id="Layer_2" data-name="Layer 2" xmlns="http://www.w3.org/2000/svg" viewBox="0 0 200 200">
  <defs>
    <style>
      .cls-1 {
        fill: #fff;
      }

      .cls-1, .cls-2 {
        stroke-width: 0px;
      }

      .cls-2 {
        fill: #f96302;
      }
    </style>
  </defs>
  <g id="Layer_1-2" data-name="Layer 1">
    <g>
      <circle class="cls-2" cx="100" cy="100" r="100"/>
      <g>
        <path class="cls-1" d="m115.18,78.65c-.1.11-.18.23-.27.34-.18-.19-.39-.34-.58-.48-6.07-2.96-12.13-5.85-18.18-8.81-3.88,3.85-7.75,7.73-11.63,11.59-.42.42-.82.91-.99,1.49-.24.86.31,1.8,1.1,2.15.66.21,1.37-.05,1.91-.47.52-.37,1-.95,1.71-.86,2.13.26,4.01,1.36,5.9,2.3,12,5.93,24,11.92,36.02,17.84.42-.44.84-.87,1.28-1.28-.08-.19-.16-.37-.26-.53-6-11.14-12.05-22.25-18.05-33.4,7.26,7.25,14.51,14.51,21.77,21.75.36.39.73.82.78,1.36.03,1.13-1.02,1.97-.91,3.11.11.86.95,1.6,1.83,1.55.79,0,1.47-.49,2-1.02,4.16-4.14,8.3-8.31,12.45-12.45.5-.5.94-1.13,1-1.86.13-1.07-.92-2.12-1.99-1.94-.92.16-1.67.89-2.64.89-.65,0-1.1-.53-1.55-.94-8.23-8.26-16.5-16.5-24.76-24.74-.47-.5-1.05-.99-1.21-1.7-.06-1.02.74-1.8.89-2.77.21-1.1-.92-2.15-2.01-1.99-.62.08-1.16.4-1.6.84-3.99,3.98-7.96,7.97-11.97,11.95,3.19,6.06,6.53,12.05,9.72,18.11l.23-.03Z"/>
        <path class="cls-1" d="m123.02,47.16c1.07.11,1.86-.86,2.91-.87.71-.05,1.23.52,1.7.97,8.36,8.36,16.71,16.72,25.07,25.07.4.44.89.91.86,1.54-.02,1-.86,1.76-.89,2.75-.08,1,.91,1.89,1.89,1.81.71-.05,1.34-.45,1.86-.94,3.95-3.96,7.9-7.92,11.85-11.87-11.26-11.27-22.53-22.54-33.8-33.8-.15-.24-.4-.1-.55.06-3.9,3.91-7.81,7.83-11.72,11.74-.63.65-1.02,1.7-.6,2.57.31.5.81.99,1.42.97Z"/>
        <path class="cls-1" d="m150.66,37.64c.89,1.47,1.6,3.15,1.49,4.92-.05.78-.39,1.47-.65,2.2.84.99,1.86,1.84,2.75,2.8.76-.34,1.57-.68,2.41-.66,1.63-.08,3.19.57,4.56,1.37.65.36,1.33.76,2.07.74.89-.1,1.73-.92,1.65-1.84-.15-.89-.87-1.47-1.49-2.07-3.24-3.24-6.47-6.48-9.7-9.72-.53-.53-1.12-1.2-1.92-1.26-.73-.1-1.34.45-1.67,1.05h0c-.31.84.05,1.75.5,2.47Z"/>
        <path class="cls-1" d="m80.23,45.03c.49-.08.86-.47,1.31-.66,1.75-.94,3.91-.84,5.66.02.45.16.89.5,1.39.44.6-.21,1.08-1.08.55-1.6-1.63-1.63-3.25-3.27-4.92-4.88-1.75,1.83-3.59,3.56-5.34,5.4.45.42.86.91,1.34,1.29Z"/>
        <path class="cls-1" d="m86.96,46.09c-.57.08-.94.73-.73,1.26h0c.26.78.84,1.42.97,2.26.18.74-.02,1.5-.23,2.22.49.44.95.92,1.42,1.39.89-.49,1.99-.45,2.89-.03.61.23,1.13.76,1.81.76.52.05,1-.44.94-.94-.03-.5-.47-.81-.78-1.15-1.76-1.73-3.51-3.49-5.26-5.24-.29-.28-.63-.6-1.05-.53Z"/>
        <path class="cls-1" d="m71.9,53.06c.63-.03,1.13-.62,1.78-.47.47.24.79.68,1.18,1.04,4.22,4.23,8.44,8.46,12.68,12.68.28.29.61.66.42,1.08-.16.57-.73,1.25-.21,1.8.42.6,1.29.39,1.73-.1,2.13-2.1,4.24-4.21,6.34-6.34-3.69-3.65-7.34-7.34-11.01-11-2.34-2.31-4.64-4.69-7.02-6.99-2.05,2.12-4.16,4.17-6.23,6.26-.27.27-.5.61-.53,1-.06.5.39.99.87,1.04Z"/>
        <path class="cls-1" d="m62.34,61.93c.76.61,1.52-.5,2.31-.24.44.26.76.65,1.13,1,1.73,1.73,3.46,3.48,5.21,5.19-.71.7-1.41,1.41-2.12,2.1.45.5.94.97,1.42,1.44.71-.69,1.41-1.39,2.1-2.1,1.99,1.96,3.95,3.95,5.92,5.9.21.23.44.44.6.71.18.71-.58,1.29-.42,2.01.11.31.37.55.68.68.55.13,1.04-.26,1.41-.63,2.1-2.09,4.2-4.19,6.31-6.29.29-.31.63-.63.71-1.07.19-.58-.37-1.25-.99-1.18-.5.11-.94.45-1.46.5-.42-.1-.73-.44-1.02-.71-4.32-4.3-8.62-8.62-12.94-12.94-.26-.29-.61-.6-.55-1.04.11-.55.53-1.02.42-1.58-.06-.52-.65-.81-1.12-.71-.47.11-.82.47-1.15.81-2.12,2.13-4.27,4.24-6.39,6.39-.5.45-.7,1.33-.08,1.76Z"/>
        <path class="cls-1" d="m95.54,60.26c.32.57.89.95,1.31,1.44,1.87-1.84,3.72-3.69,5.56-5.55-1.65-1.65-3.32-3.3-4.95-4.95-.39-.45-1.21-.39-1.5.15-.34.52.05,1.12.23,1.63.63,1.36.87,2.91.6,4.38-.15,1.07-.71,1.99-1.25,2.89Z"/>
        <path class="cls-1" d="m64.82,91.1c-.58.21-1.29.71-1.83.11-1.89-1.83-3.72-3.72-5.6-5.58-3.41-3.4-6.82-6.81-10.22-10.22-1.8,1.8-3.57,3.59-5.39,5.37-.18.19-.32.39-.49.6,5.18,5.11,10.29,10.29,15.44,15.41.26.29.63.57.6,1,0,.52-.4.94-.44,1.46-.05.49.44.97.94.92.45.03.84-.27,1.15-.58,2.18-2.18,4.35-4.37,6.55-6.55.27-.29.52-.65.52-1.07.02-.61-.66-1.13-1.25-.87Z"/>
        <path class="cls-1" d="m43.28,88.92c-1.05-1.47-1.94-3.23-1.68-5.11-.49-.42-.86-1.1-1.46-1.33h0c-1.18,1.08-2.26,2.26-3.43,3.36,1.76,1.78,3.54,3.52,5.3,5.3.26.24.53.58.94.58.71.08,1.41-.66,1.2-1.37-.19-.53-.57-.97-.87-1.44Z"/>
        <path class="cls-1" d="m126.89,141.78h0c-.42.58.03,1.29.24,1.88,1.16,2.46.92,5.55-.81,7.68.49.5.99.99,1.46,1.49,2.04-1.89,3.95-3.93,5.94-5.87-1.73-1.78-3.51-3.52-5.26-5.29-.4-.49-1.23-.4-1.57.11Z"/>
        <path class="cls-1" d="m69.86,85.17c.03.63-.55,1.13-.45,1.78.06.55.69.87,1.21.73.47-.15.81-.53,1.15-.86,2.09-2.12,4.2-4.2,6.31-6.32.49-.42.68-1.31.11-1.76-.87-.65-1.91.86-2.72-.02-4.48-4.46-8.94-8.94-13.42-13.42-.21-.23-.49-.47-.47-.81.02-.65.61-1.21.39-1.88-.23-.55-.95-.74-1.44-.44-.27.16-.49.37-.71.58-2.09,2.1-4.19,4.2-6.29,6.31-.34.34-.7.74-.65,1.25.02.47.44.91.92.89.57-.06,1.05-.5,1.63-.47.53.19.87.66,1.28,1.04,4.22,4.24,8.46,8.47,12.7,12.7.19.21.37.44.45.71Z"/>
        <path class="cls-1" d="m104,131.24c1.96-2.33,3.51-5.03,4.37-7.96.87-2.96,1-6.13.42-9.15-1.05-5.51-4.16-10.46-8.05-14.41-3.98-4.09-8.96-7.39-14.59-8.59-3.32-.68-6.81-.57-10.03.47-2.72.87-5.24,2.31-7.39,4.16,0,.05.02.15.02.19.65.71,1.36,1.34,2.01,2.04.21.16.42.57.74.39.81-.29,1.65-.6,2.51-.48,1.05.08,1.97.68,2.7,1.42,7.99,8.01,16.01,16.01,24,24.02,1.08,1.04,1.52,2.64,1.08,4.06-.08.42-.36.79-.36,1.23.81.91,1.73,1.73,2.57,2.62Z"/>
        <path class="cls-1" d="m142.44,135.9c-.7-.13-1.25.55-1.94.49-.34-.06-.58-.36-.84-.57-3.64-3.64-7.28-7.28-10.9-10.92-1.91-1.86-3.74-3.8-5.68-5.61h0c-2.13,2.13-4.29,4.29-6.44,6.42-.36.37-.78.81-.73,1.37-.03.52.45.95.95,1,.65-.08,1.2-.66,1.89-.47.4.21.7.6,1.04.91,4.68,4.69,9.36,9.38,14.05,14.05.65.69-.58,1.5-.13,2.26.31.61,1.25.89,1.75.34,2.28-2.25,4.53-4.53,6.81-6.78.39-.42.92-.86.92-1.49.05-.47-.34-.87-.76-1.02Z"/>
        <path class="cls-1" d="m118.36,145.63c-3.64-3.57-7.21-7.21-10.84-10.79-2.23,2.25-4.5,4.46-6.73,6.73h0c-.52.49-.71,1.46-.03,1.89.79.57,1.54-.49,2.36-.32.82.49,1.41,1.26,2.1,1.91l11.79,11.79c.49.5,1.05.95,1.38,1.58.1.74-.7,1.34-.45,2.1.13.45.63.6,1.04.74.4-.18.84-.37,1.15-.71,2.17-2.21,4.4-4.38,6.57-6.61-2.8-2.75-5.55-5.55-8.33-8.31Z"/>
        <path class="cls-1" d="m154.96,100.93c.15-.39.29-.82.08-1.21-.39-.81-1.02-1.47-1.46-2.25-.84-1.36-1.39-2.96-1.18-4.58-.5-.49-.97-1-1.5-1.44-1.21,1.23-2.44,2.44-3.66,3.65h0c1.25,1.37,2.62,2.64,3.91,3.98-1.07-.24-2.13-.5-3.23-.47-2.86-.15-5.66,1.04-7.81,2.88.49.49.99.99,1.49,1.46.52-.18,1.08-.34,1.65-.27.6.05,1.1.44,1.52.86,4.25,4.25,8.51,8.51,12.78,12.76.53.53,1.13,1.08,1.29,1.86.15.6-.14,1.18-.23,1.78.4.55.95.99,1.42,1.47,1.73-2.07,2.91-4.69,2.89-7.42.06-2.88-1.08-5.63-2.72-7.94-1.44-2-3.22-3.73-5.26-5.11Z"/>
        <path class="cls-1" d="m157.45,121.07c-.63.19-1.29.42-1.94.24-.71-.19-1.2-.78-1.7-1.26-4.27-4.25-8.51-8.52-12.78-12.78-.39-.39-.76-.82-.86-1.38-.16-.61.11-1.23.29-1.81-.48-.49-.99-.97-1.45-1.46-1.62,1.84-2.7,4.19-2.9,6.65h0c-.23,2.34.42,4.67,1.46,6.74-1.65-1.6-3.99-2.6-6.32-2.22-2.85.36-5.06,2.38-7,4.33.5.48.99.99,1.49,1.47.5-.29,1.04-.6,1.63-.53,1.02.06,1.78.82,2.49,1.49,1.21,1.21,2.42,2.42,3.62,3.64.58.61,1.25,1.2,1.55,2.01.26.79-.02,1.6-.44,2.28.5.48,1,.99,1.49,1.47,1.34-1.37,2.7-2.8,3.57-4.54.89-1.78,1.02-3.9.45-5.79,1.2,1.41,2.64,2.62,4.2,3.62,2.17,1.36,4.72,2.28,7.33,2.17,2.68,0,5.22-1.18,7.26-2.86-.47-.52-.97-1-1.46-1.49Z"/>
        <path class="cls-1" d="m114.42,127.99c-1.96,1.86-3.83,3.82-5.76,5.71.5.49.99.99,1.47,1.49.91-.53,1.81-1.12,2.85-1.33,1.63-.42,3.35-.07,4.83.66.37.16.76.42,1.18.37.6-.26,1.21-1.12.63-1.68-1.73-1.75-3.48-3.48-5.21-5.22Z"/>
        <path class="cls-1" d="m49.62,75.72c1.52-.18,3.01.32,4.29,1.12.76.42,1.39,1.05,2.18,1.41.79.36,1.7-.52,1.5-1.31-.16-.42-.52-.71-.81-1.04-1.7-1.67-3.36-3.38-5.06-5.03-.97.95-1.91,1.92-2.88,2.86-.19.19-.4.37-.53.63.39.48.87.91,1.31,1.36Z"/>
        <path class="cls-1" d="m116.89,116.14c.74-.08,1.36-.58,1.89-1.07,2.01-1.97,4.01-3.96,5.98-5.97.6-.61,1.16-1.36,1.21-2.25-.06-.68-.49-1.26-1.12-1.52-.61-.19-1.25.03-1.83.23-1.15.4-2.44.4-3.59-.03-1.65-.62-3.13-1.6-4.33-2.88-2.21-2.22-4.43-4.42-6.63-6.65-.19-.18-.4-.36-.63-.47-2.62-1.28-5.21-2.59-7.81-3.85-.7-.36-1.37-.73-2.12-.97.65.76,1.39,1.41,2.07,2.12,4.4,4.42,8.8,8.8,13.18,13.2,1.16,1.41,2.22,3.04,2.47,4.88.18,1.1-.24,2.17-.55,3.22-.32,1.04.73,2.17,1.8,2.01Z"/>
        <path class="cls-1" d="m118.78,143.82c.98-.5,2.14-.51,3.12-.02.71.26,1.29.89,2.09.81.48-.05.71-.53.92-.89-.23-.81-.94-1.29-1.49-1.86-1.68-1.71-3.4-3.4-5.09-5.11-.23-.23-.47-.44-.79-.52-.7-.11-1.31.66-1.05,1.33.27.78.82,1.45,1.02,2.28.26.81.1,1.68-.26,2.44.52.5,1.02,1.02,1.54,1.54Z"/>
        <path class="cls-1" d="m159.51,82.84c.44.57.95,1.07,1.49,1.55,2-.34,3.9.69,5.5,1.8.6.4,1.2,1.02,1.97.91.84-.13,1.29-1.33.66-1.93-1.97-2.01-3.96-3.99-5.97-5.97-1.21,1.21-2.41,2.44-3.65,3.64Z"/>
        <polygon class="cls-1" points="97.92 90.71 97.92 90.71 97.92 90.71 97.92 90.71"/>
        <polygon class="cls-1" points="108.66 133.7 108.66 133.7 108.66 133.7 108.66 133.7"/>
        <path class="cls-1" d="m106.23,150.15c-2.38-1.57-5.24-2.6-8.12-2.36h0c-2.57.16-5,1.44-6.78,3.27.29.65.94,1.03,1.41,1.55.5-.29,1.04-.6,1.63-.53,1.1.08,1.94.87,2.68,1.6l10.92,10.92c.66.66,1.33,1.46,1.49,2.43.1.65-.24,1.23-.53,1.78.48.5.97.99,1.47,1.47,2.17-2.15,3.36-5.22,3.32-8.26-.02-2.67-.99-5.26-2.57-7.37-1.33-1.8-3.06-3.23-4.92-4.48Z"/>
        <path class="cls-1" d="m99.36,130.63c-.95.36-1.97.71-3.01.55-1.16-.18-2.09-.95-2.85-1.78-7.88-7.88-15.75-15.73-23.61-23.61-1.02-1-1.57-2.52-1.15-3.91.08-.52.5-1,.34-1.52-.81-.86-1.68-1.67-2.51-2.51-1.67,2.02-3.07,4.29-3.96,6.76-1.26,3.36-1.49,7.08-.78,10.59,1.02,5.14,3.86,9.75,7.4,13.55.11.11.21.23.32.34,3.62,3.77,8.07,6.92,13.11,8.41.51.15,1.03.29,1.56.41,3.74.82,7.71.6,11.27-.78,2.36-.92,4.58-2.23,6.49-3.9-.87-.87-1.75-1.73-2.62-2.6Z"/>
        <path class="cls-1" d="m83.69,145.31c-.36.09-.69.25-1.03.42-.49.24-.97.49-1.53.49-.55-.05-.99-.42-1.37-.79l-16.67-16.67-8.23-8.23c-.52-.52-1.16-1.07-1.23-1.84.03-.89.63-1.62.87-2.44.31-1.08-.71-2.25-1.83-2.18-.68.05-1.31.4-1.8.87h0c-4.03,4.06-8.09,8.09-12.13,12.15-.5.49-1.07,1-1.34,1.68-.03.08-.06.17-.09.26-.42,1.15.7,2.54,1.92,2.33.95-.18,1.75-.97,2.77-.91.74.18,1.25.81,1.78,1.31,3.49,3.48,6.94,6.97,10.45,10.41,0,.07-.02.21-.02.28-1.31,1.25-2.59,2.54-3.85,3.85.87.89,1.75,1.76,2.62,2.64,1.29-1.24,2.54-2.56,3.83-3.8.21-.23.4.1.55.21,3.7,3.72,7.44,7.42,11.16,11.16.37.42.84.87.87,1.47-.02,1-.82,1.78-.92,2.75-.08.99.83,1.91,1.8,1.88.79,0,1.47-.47,2.02-1l10.36-10.36,2.18-2.18c.5-.52.91-1.18.94-1.91.05-1.07-1.02-2.04-2.09-1.83Z"/>
        <path class="cls-1" d="m66.58,162.47c-.91.18-1.65.89-2.59.89-.6-.05-1.05-.49-1.46-.87-8.23-8.22-16.45-16.45-24.66-24.66-.55-.55-1.21-1.08-1.41-1.88,0-.22.03-.42.08-.62,0-.03.02-.06.02-.09.19-.63.59-1.21.77-1.84.31-1.08-.71-2.26-1.81-2.18-.76.05-1.44.48-1.96,1.02-2.02,2.04-4.05,4.08-6.08,6.11-2.12,2.12-4.24,4.25-6.38,6.36-.53.52-.97,1.2-1.02,1.96-.08,1.1,1.1,2.12,2.18,1.81.63-.18,1.2-.58,1.83-.77.04-.01.07-.02.11-.03.09-.02.18-.05.27-.06,0,0,0,0,0,0,.11-.02.23-.02.34-.02.79.19,1.33.86,1.88,1.41,8.22,8.22,16.45,16.43,24.66,24.66.39.4.82.86.87,1.46,0,.67-.37,1.25-.64,1.85,0,.01-.01.03-.02.04h0c-.1.22-.18.45-.23.69-.23,1.08.86,2.18,1.94,2.04.94-.1,1.65-.76,2.26-1.41l1.32-1.32h0l4.51-4.51,5.82-5.82c.65-.61,1.31-1.33,1.41-2.26.15-1.08-.95-2.17-2.04-1.94Z"/>
        <path class="cls-1" d="m109.27,171.4c-3.19-3.18-6.38-6.38-9.57-9.57-3.19-3.19-6.38-6.37-9.57-9.57,0,0,0,0,0,0h0c-2.09,2.01-4.09,4.09-6.16,6.11-.44.45-.92.89-1.13,1.5-.1.6.45,1.16,1.03,1.2.23-.03.44-.11.65-.2h0c.05-.01.1-.04.16-.07.08-.04.16-.07.23-.1.05-.02.1-.04.16-.06,0,0,0,0,0,0,.23-.07.46-.09.68-.01.05.02.1.05.15.07.04.02.08.05.11.08,1.04.89,1.94,1.92,2.94,2.88.87.87,1.73,1.73,2.6,2.6.62.62,1.24,1.24,1.86,1.86.62.62,1.24,1.24,1.86,1.86.87.87,1.73,1.73,2.6,2.6.95,1,1.99,1.91,2.88,2.94.03.04.05.07.08.11.03.05.05.1.07.15.08.22.06.45-.01.68,0,0,0,0,0,0-.02.05-.04.1-.06.16-.03.08-.07.16-.1.23-.03.05-.05.11-.08.16h.01c-.09.21-.18.42-.2.65.03.58.6,1.13,1.2,1.03.61-.21,1.05-.69,1.5-1.13,2.02-2.07,4.11-4.08,6.11-6.16h0s0,0,0,0Z"/>
        <path class="cls-1" d="m178.42,101.55c-.02-.6-.69-1.05-1.26-.84-.22.07-.44.18-.65.28-.31.12-.62.23-.93.12-.04-.02-.08-.04-.12-.07-.21-.14-.4-.31-.59-.48-.12-.12-.24-.24-.36-.36-.03-.03-.06-.06-.08-.08-.14-.14-.27-.28-.41-.42-.65-.65-1.3-1.3-1.96-1.96-3.39-3.4-6.77-6.79-10.16-10.17-1.1-1.06-2.13-2.18-3.26-3.22-.1-.1-.2-.2-.31-.31,0,0,0,0-.01.01,0,0,0,0-.01-.01-.68.71-1.37,1.4-2.06,2.1-1.38,1.39-2.76,2.77-4.17,4.13,0,0,.01.01.02.02,0,0,0,0-.01.01.1.1.2.2.3.3,1.04,1.13,2.16,2.16,3.22,3.26,3.39,3.39,6.78,6.78,10.17,10.16.65.66,1.31,1.31,1.96,1.97.14.14.28.28.42.41.02.02.05.05.07.07.12.13.25.25.38.38.17.17.32.36.46.56.03.06.07.11.09.17.04.11.05.22.04.34-.05.42-.33.81-.45,1.21-.21.57.24,1.25.84,1.26.53.1.99-.26,1.33-.61.32-.32.64-.64.95-.95h.01c1.97-1.97,3.95-3.96,5.94-5.93.36-.34.71-.79.61-1.33Z"/>
        <path class="cls-1" d="m152.72,25.79l-2.79-2.79h0c-.85-.82-1.71-1.63-2.58-2.43-.35-.32-1.4-.44-1.71-.17-.85.75-1.69,1.52-2.53,2.29l-6.86,6.86c.86.91,1.76,1.75,2.62,2.64,1.97-1.36,4.2-2.44,6.63-2.62,2.18-.23,4.38.34,6.39,1.21.76.32,1.47.84,2.33.92.84-.05,1.47-.79,1.76-1.54.24-.52.02-1.13-.39-1.5-.95-.96-1.91-1.92-2.87-2.87Z"/>
        <path class="cls-1" d="m179.59,52.2c-.8-.87-1.61-1.74-2.43-2.58h0s-.32-.33-.32-.33v-.05c-1.84-1.81-3.64-3.65-5.47-5.47-.49-.5-1.28-.76-1.94-.45-.44.21-.86.55-1.05,1.02-.24.94.18,1.86.55,2.7,1.13,2.39,1.63,5.09,1.29,7.73-.23,1.8-.87,3.56-1.84,5.09-.26.37-.5.76-.73,1.15.94.81,1.73,1.78,2.68,2.57.27-.27.54-.54.81-.81l6.32-6.32c.77-.84,1.54-1.68,2.29-2.53.27-.31.15-1.36-.17-1.71Z"/>
      </g>
    </g>
  </g>
</svg>