<?xml version="1.0" encoding="UTF-8"?>
<svg id="Layer_2" data-name="Layer 2" xmlns="http://www.w3.org/2000/svg" viewBox="0 0 50 50">
  <defs>
    <style>
      .cls-1 {
        fill: #0a3371;
      }

      .cls-1, .cls-2, .cls-3, .cls-4 {
        stroke-width: 0px;
      }

      .cls-2 {
        fill: #f8b818;
      }

      .cls-3 {
        fill: #fff;
      }

      .cls-4 {
        fill: #039be7;
      }
    </style>
  </defs>
  <g id="Layer_2-2" data-name="Layer 2">
    <g>
      <circle class="cls-1" cx="25" cy="25" r="25"/>
      <g>
        <path class="cls-3" d="m39.01,11.14c.31,0,.4.06.4.39-.05,4.5-.39,8.98-1.45,13.37-.83,3.46-2.06,6.77-4,9.77-2.18,3.37-5.05,5.97-8.72,7.65-.18.08-.32.08-.5,0-4.31-2-7.47-5.2-9.71-9.35-1.8-3.31-2.85-6.88-3.52-10.56-.65-3.61-.9-7.26-.91-10.93,0-.27.05-.35.34-.34m.9.87c-.32,0-.37.09-.36.38.03,1.18.07,2.36.14,3.54.19,2.99.58,5.96,1.28,8.88.78,3.22,1.91,6.31,3.69,9.13,2.01,3.2,4.66,5.69,8.06,7.38.25.13.44.13.69,0,1.35-.67,2.61-1.47,3.76-2.43,2.77-2.29,4.75-5.18,6.15-8.46,2.15-5.07,3-10.4,3.17-15.86.02-.74.1-1.49.12-2.23,0-.27-.07-.32-.33-.32"/>
        <path class="cls-2" d="m22.19,34.76c-.37-.3-.65-.68-.93-1.06-1.41-1.97-2.07-4.13-1.66-6.56.21-1.28.73-2.43,1.4-3.53.66-1.08,1.55-1.97,2.3-2.97.86-1.15,1.64-2.35,2.13-3.71.32-.89.5-1.79.19-2.72,0-.02,0-.06.01-.08.85.91,1.52,1.93,2.03,3.06.05.21.1.41.15.62.04.61-.04,1.2-.21,1.78-.38,1.31-1.07,2.45-1.84,3.55-.74,1.07-1.66,1.99-2.41,3.05-1.18,1.69-1.91,3.54-1.82,5.64.05,1.01.29,1.97.66,2.9-.01.01-.02.03-.01.05Z"/>
        <path class="cls-4" d="m22.19,34.76s0-.03.01-.05c.18-.29.18-.64.3-.95.55-1.44,1.46-2.65,2.4-3.84,1.32-1.66,2.44-3.43,3.08-5.47.68-2.18.65-4.36-.05-6.53-.02-.06-.03-.13-.11-.14-.05-.21-.1-.41-.15-.62.69.62,1.18,1.4,1.6,2.21,1.66,3.19,1.59,6.41.14,9.65-.65,1.44-1.55,2.72-2.52,3.96-.86,1.1-1.71,2.22-2.25,3.53-.17.4-.26.82-.35,1.29-.93-.9-1.57-1.94-2.1-3.06Z"/>
      </g>
    </g>
  </g>
</svg>