<?xml version="1.0" encoding="UTF-8"?>
<svg id="Layer_2" data-name="Layer 2" xmlns="http://www.w3.org/2000/svg" viewBox="0 0 200 200">
  <defs>
    <style>
      .cls-1 {
        fill: #0a3371;
      }

      .cls-1, .cls-2, .cls-3, .cls-4 {
        stroke-width: 0px;
      }

      .cls-2 {
        fill: #f8b818;
      }

      .cls-3 {
        fill: #fff;
      }

      .cls-4 {
        fill: #039be7;
      }
    </style>
  </defs>
  <g id="Layer_2-2" data-name="Layer 2">
    <g>
      <circle class="cls-1" cx="100" cy="100" r="100"/>
      <g>
        <path class="cls-3" d="m103.19,91.11c0,.15,0,.3,0,.45,0,5.56,0,11.13-.01,16.69,0,.46.13.57.56.54.58-.04,1.17,0,1.76-.01.28,0,.37.08.36.36-.02.87-.02,1.74,0,2.61,0,.3-.11.35-.37.35-3.02,0-6.04,0-9.07,0-.26,0-.38-.05-.37-.35.02-.87.02-1.74,0-2.61,0-.27.06-.38.35-.37.41.02.82.02,1.23,0,.73-.02,1.07-.36,1.08-1.1.01-1.21,0-2.42,0-3.63,0-5.4,0-10.81,0-16.21,0-1.11-.27-1.37-1.39-1.38q-1.27,0-1.27-1.26c0-.57.01-1.14,0-1.71,0-.28.04-.41.37-.41,2.56.01,5.12.02,7.68,0,.35,0,.45.21.59.43,2.1,3.39,4.21,6.79,6.32,10.18,2.18,3.51,4.37,7.02,6.55,10.54.04.07.09.14.24.35,0-.42,0-.69,0-.96,0-5.55,0-11.09,0-16.64,0-.46-.14-.57-.57-.54-.58.04-1.17,0-1.76.01-.25,0-.35-.07-.34-.33.01-.91.01-1.81,0-2.72,0-.27.12-.32.36-.32,3,0,6.01,0,9.01,0,.24,0,.35.07.35.34-.01.91-.01,1.81,0,2.72,0,.28-.12.32-.36.32-.44,0-.89-.02-1.33.01-.62.04-.93.37-.97.99,0,.14,0,.28,0,.43,0,7.89,0,15.79,0,23.68,0,.4-.08.54-.51.53-1.6-.03-3.2-.02-4.8,0-.3,0-.48-.07-.64-.34-3.38-5.42-6.78-10.84-10.17-16.25-.92-1.47-1.85-2.95-2.77-4.42l-.11.02Z"/>
        <path class="cls-3" d="m154.62,97.7c0,3.27,0,6.54,0,9.81,0,.96.31,1.26,1.28,1.28.44.01,1.01-.2,1.27.1.21.26.07.81.08,1.24,0,.53-.01,1.07,0,1.6,0,.27-.06.38-.35.38-3.29,0-6.58,0-9.87,0-.22,0-.32-.04-.31-.29.01-.91.01-1.81,0-2.72,0-.28.11-.32.35-.31.64.01,1.28,0,1.92,0,.28,0,.41-.03.41-.36-.01-2.99-.01-5.97,0-8.96,0-.32-.12-.38-.41-.37-4.09,0-8.18.01-12.27,0-.32,0-.43.08-.43.41.01,2.97.01,5.94,0,8.91,0,.32.11.38.4.38.62-.02,1.24,0,1.87-.01.28,0,.41.04.4.37-.02.85-.02,1.71,0,2.56,0,.29-.06.4-.38.4-3.25-.01-6.51,0-9.76,0-.27,0-.38-.06-.37-.35.02-.87.02-1.74,0-2.61,0-.28.07-.38.36-.36.43.02.85.02,1.28,0,.64-.03.97-.37,1.01-1.01.02-.25,0-.5,0-.75,0-6.36,0-12.73,0-19.09,0-1.21-.25-1.45-1.48-1.46q-1.17,0-1.17-1.15c0-.6.01-1.21,0-1.81,0-.29.06-.41.38-.41,3.25.01,6.51,0,9.76,0,.28,0,.37.09.37.37-.01.89-.02,1.78,0,2.67,0,.31-.13.34-.39.34-.62-.01-1.25.02-1.87,0-.34-.01-.42.1-.41.42.01,2.65.01,5.3,0,7.95,0,.29.06.4.38.4,4.11,0,8.21,0,12.32,0,.3,0,.39-.08.39-.39-.01-2.67-.01-5.33,0-8,0-.31-.09-.39-.39-.39-.64.02-1.28,0-1.92.01-.27,0-.37-.08-.37-.36.02-.89.02-1.78,0-2.67,0-.3.12-.35.38-.35,3.25,0,6.51.01,9.76,0,.31,0,.4.11.39.4-.01.87-.01,1.74,0,2.61,0,.29-.1.38-.37.36-.34-.02-.68-.01-1.01,0-.95.02-1.24.31-1.25,1.25,0,3.02,0,6.04,0,9.07,0,.3,0,.6,0,.91Z"/>
        <path class="cls-3" d="m180.68,95.2c0-2.76,0-5.51,0-8.27,0-.36-.07-.5-.46-.47-.5.04-1,0-1.49.02-.29.01-.41-.06-.41-.38.02-.87.02-1.74,0-2.61,0-.32.13-.38.41-.38,2.77,0,5.55,0,8.32,0,.31,0,.44.06.43.41-.02.85-.02,1.71,0,2.56,0,.34-.11.43-.43.41-.32-.02-.64-.01-.96,0-.62.04-.92.35-.95.98,0,.14,0,.28,0,.43,0,5.05,0,10.1-.03,15.15,0,1.49-.31,2.93-.9,4.3-1.18,2.73-3.36,4.21-6.17,4.83-2.83.63-5.69.61-8.51-.09-3.61-.9-5.72-3.24-6.4-6.89-.2-1.09-.25-2.19-.25-3.29,0-4.68,0-9.35,0-14.03,0-1.13-.26-1.39-1.37-1.39q-.97,0-.97-.98c0-.66,0-1.32,0-1.97,0-.27.04-.42.37-.42,3.09.01,6.19,0,9.28,0,.26,0,.39.05.38.35-.02.89-.02,1.78,0,2.67,0,.3-.11.36-.38.35-.57-.01-1.14.01-1.71-.01-.31-.01-.43.05-.43.4.01,5.33,0,10.67.01,16,0,.69.1,1.38.28,2.05.49,1.81,1.63,3.01,3.44,3.51,1.55.43,3.13.45,4.69.07,2.51-.62,4.03-2.39,4.11-4.98.08-2.77.02-5.55.02-8.32h.04Z"/>
        <path class="cls-3" d="m71.66,107.46c0-.98.02-1.96,0-2.93,0-.34.11-.42.42-.42.87.02,1.74.02,2.61,0,.26,0,.38.06.42.33.37,2.5,1.98,3.75,4.33,4.19,1.81.34,3.61.36,5.28-.6,1.29-.75,2.2-1.79,2.4-3.33.19-1.41-.29-2.55-1.42-3.41-1.11-.85-2.41-1.27-3.72-1.67-1.58-.49-3.18-.89-4.72-1.48-1.61-.62-3.14-1.37-4.23-2.76-2.91-3.68-1.56-9.35,2.71-11.43,2.47-1.2,5.11-1.43,7.8-1.28,2.47.15,4.89.62,7.26,1.36.37.11.48.27.48.66-.02,1.76-.02,3.52,0,5.28,0,.35-.06.5-.45.48-.82-.03-1.64,0-2.45-.01-.17,0-.36.05-.39-.23-.24-1.77-1.4-2.79-2.95-3.4-2.09-.83-4.21-.97-6.29.1-2.07,1.07-2.89,4.62-.08,6.18,1.14.64,2.38,1.02,3.62,1.38,1.84.53,3.7,1,5.45,1.8,2.79,1.27,4.55,3.3,4.69,6.48.15,3.48-1.06,6.3-4.13,8.14-2.19,1.31-4.61,1.72-7.12,1.66-3.06-.06-6.02-.68-8.94-1.59-.43-.13-.62-.31-.6-.81.05-.9.01-1.81.01-2.72Z"/>
        <path class="cls-3" d="m60.37,73.68c.52,0,.68.1.67.66-.08,7.59-.66,15.12-2.44,22.52-1.4,5.84-3.47,11.4-6.75,16.47-3.68,5.68-8.51,10.05-14.69,12.89-.31.14-.53.14-.84,0-7.27-3.37-12.58-8.76-16.36-15.75-3.02-5.58-4.81-11.58-5.93-17.8-1.1-6.09-1.52-12.23-1.54-18.41,0-.46.09-.58.57-.58m1.51,1.47c-.54,0-.62.15-.61.65.06,1.99.12,3.98.24,5.97.32,5.04.97,10.04,2.15,14.95,1.31,5.43,3.22,10.62,6.21,15.38,3.39,5.39,7.86,9.59,13.58,12.43.43.21.75.22,1.17,0,2.27-1.13,4.39-2.48,6.34-4.09,4.67-3.86,8-8.72,10.35-14.25,3.63-8.53,5.05-17.52,5.34-26.72.04-1.25.17-2.5.2-3.76.01-.46-.12-.55-.56-.55"/>
        <path class="cls-2" d="m32.04,113.47c-.63-.5-1.1-1.14-1.56-1.79-2.37-3.32-3.48-6.96-2.8-11.05.36-2.15,1.22-4.1,2.36-5.95,1.12-1.81,2.62-3.32,3.88-5.01,1.45-1.94,2.77-3.95,3.59-6.25.53-1.49.84-3.01.33-4.58-.01-.04.01-.1.02-.14,1.43,1.53,2.56,3.25,3.41,5.15.08.35.17.69.25,1.04.07,1.02-.07,2.02-.36,3-.63,2.2-1.8,4.12-3.1,5.98-1.25,1.79-2.8,3.35-4.06,5.14-1.99,2.85-3.22,5.96-3.06,9.51.08,1.7.48,3.31,1.11,4.88-.02.02-.03.05-.02.08Z"/>
        <path class="cls-4" d="m32.04,113.47s0-.06.02-.08c.3-.49.3-1.07.5-1.6.92-2.42,2.45-4.47,4.04-6.47,2.22-2.8,4.11-5.77,5.18-9.21,1.15-3.68,1.09-7.34-.08-10.99-.03-.1-.04-.21-.18-.23-.08-.35-.17-.69-.25-1.04,1.16,1.05,1.99,2.35,2.7,3.72,2.8,5.38,2.68,10.8.23,16.26-1.09,2.43-2.61,4.58-4.24,6.67-1.45,1.86-2.88,3.74-3.79,5.95-.28.67-.43,1.37-.58,2.17-1.57-1.52-2.64-3.27-3.54-5.15Z"/>
      </g>
    </g>
  </g>
</svg>