<?xml version="1.0" encoding="UTF-8"?>
<svg id="Layer_2" data-name="Layer 2" xmlns="http://www.w3.org/2000/svg" viewBox="0 0 50 50">
  <defs>
    <style>
      .cls-1 {
        fill: #21910a;
      }

      .cls-1, .cls-2 {
        stroke-width: 0px;
      }

      .cls-2 {
        fill: #fff;
      }
    </style>
  </defs>
  <g id="Layer_1-2" data-name="Layer 1">
    <g>
      <path class="cls-2" d="m32.73,37.64c-.25.32-.51.62-1.02.84.3-1.69.59-3.37.91-5.06,1.45-7.64,2.89-15.28,4.37-22.91.16-.82,0-1.28-.83-1.64-1.92-.81-3.82-1.67-5.65-2.64-1.09-.58-1.7-.38-2.46.56-5.75,7.08-11.55,14.11-17.34,21.16-.21.25-.42.49-.8.66.77-3.52,1.54-7.04,2.3-10.56,1.18-5.42,2.36-10.85,3.54-16.27C6.52,5.46,0,14.47,0,25c0,7.69,3.47,14.57,8.93,19.15.04-.04.08-.09.12-.14,5.19-6.57,10.44-13.09,15.68-19.62.25-.32.52-.62,1.01-.84-.29,1.52-.57,3.04-.88,4.55-1.45,7.17-2.9,14.33-4.35,21.5,1.46.26,2.95.4,4.49.4,13.81,0,25-11.19,25-25,0-2.8-.46-5.49-1.31-8.01-5.33,6.88-10.64,13.76-15.96,20.64Z"/>
      <path class="cls-1" d="m9.89,28.61c.38-.16.59-.41.8-.66,5.79-7.05,11.59-14.08,17.34-21.16.77-.94,1.37-1.14,2.46-.56,1.83.98,3.74,1.83,5.65,2.64.84.35.99.82.83,1.64-1.47,7.63-2.92,15.27-4.37,22.91-.32,1.68-.61,3.37-.91,5.06.51-.22.78-.52,1.02-.84,5.32-6.88,10.64-13.77,15.96-20.64C45.35,7.11,36.01,0,25,0c-3.27,0-6.4.63-9.26,1.77-1.18,5.43-2.36,10.85-3.54,16.27-.77,3.52-1.53,7.04-2.3,10.56Z"/>
      <path class="cls-1" d="m25.74,23.55c-.49.23-.76.53-1.01.84-5.24,6.53-10.49,13.05-15.68,19.62-.04.05-.08.1-.12.14,3.26,2.73,7.22,4.65,11.58,5.44,1.45-7.17,2.9-14.33,4.35-21.5.31-1.51.58-3.03.88-4.55Z"/>
    </g>
  </g>
</svg>