<?xml version="1.0" encoding="UTF-8"?>
<svg id="Layer_2" data-name="Layer 2" xmlns="http://www.w3.org/2000/svg" viewBox="0 0 200 200">
  <defs>
    <style>
      .cls-1 {
        fill: #21910a;
      }

      .cls-1, .cls-2 {
        stroke-width: 0px;
      }

      .cls-2 {
        fill: #fff;
      }
    </style>
  </defs>
  <g id="Layer_1-2" data-name="Layer 1">
    <g>
      <path class="cls-2" d="m130.91,150.55c-.98,1.27-2.05,2.48-4.1,3.34,1.21-6.74,2.36-13.49,3.63-20.22,5.79-30.56,11.58-61.11,17.46-91.65.63-3.27,0-5.13-3.33-6.54-7.66-3.24-15.27-6.67-22.61-10.58-4.37-2.32-6.79-1.53-9.85,2.25-22.98,28.32-46.2,56.45-69.35,84.64-.82,1-1.67,1.97-3.19,2.63,3.07-14.08,6.14-28.16,9.21-42.24,4.73-21.7,9.45-43.39,14.15-65.1C26.06,21.82,0,57.87,0,100c0,30.76,13.89,58.27,35.74,76.61.16-.18.31-.37.47-.57,20.75-26.28,41.77-52.35,62.72-78.49,1.01-1.26,2.08-2.47,4.04-3.37-1.17,6.07-2.28,12.15-3.5,18.2-5.79,28.67-11.61,57.33-17.41,86,5.82,1.05,11.82,1.61,17.94,1.61,55.23,0,100-44.77,100-100,0-11.2-1.84-21.97-5.24-32.02-21.3,27.51-42.57,55.05-63.85,82.57Z"/>
      <path class="cls-1" d="m39.58,114.43c1.52-.66,2.37-1.63,3.19-2.63,23.15-28.19,46.37-56.32,69.35-84.64,3.07-3.78,5.48-4.57,9.85-2.25,7.34,3.9,14.94,7.34,22.61,10.58,3.34,1.41,3.96,3.27,3.33,6.54-5.88,30.54-11.67,61.09-17.46,91.65-1.27,6.73-2.42,13.48-3.63,20.22,2.05-.86,3.11-2.07,4.1-3.34,21.28-27.52,42.55-55.06,63.85-82.57C181.41,28.45,144.03,0,100,0c-13.09,0-25.6,2.52-37.06,7.1-4.7,21.7-9.43,43.4-14.15,65.1-3.07,14.08-6.14,28.16-9.21,42.24Z"/>
      <path class="cls-1" d="m102.97,94.19c-1.96.9-3.03,2.11-4.04,3.37-20.94,26.13-41.96,52.2-62.72,78.49-.16.2-.32.39-.47.57,13.03,10.94,28.88,18.62,46.32,21.78,5.8-28.67,11.62-57.33,17.41-86,1.22-6.06,2.34-12.13,3.5-18.2Z"/>
    </g>
  </g>
</svg>